<mxfile host="app.diagrams.net" modified="2021-10-19T04:17:13.968Z" agent="5.0 (Windows NT 10.0; Win64; x64) AppleWebKit/537.36 (KHTML, like Gecko) Chrome/94.0.4606.81 Safari/537.36 Edg/94.0.992.50" etag="IqKURfhIyoeszPEYB2jT" version="15.5.5" type="github">
  <diagram name="Page-1" id="b5b7bab2-c9e2-2cf4-8b2a-24fd1a2a6d21">
    <mxGraphModel dx="885" dy="1954" grid="1" gridSize="10" guides="1" tooltips="1" connect="1" arrows="1" fold="1" page="1" pageScale="1" pageWidth="827" pageHeight="1169" background="none" math="0" shadow="0">
      <root>
        <mxCell id="0" />
        <mxCell id="1" parent="0" />
        <mxCell id="SGQKVFIN_M6mXLM_hyoQ-1" value="&lt;pre style=&quot;background-color: #282c34 ; color: #bbbbbb ; font-family: &amp;#34;jetbrains mono&amp;#34; , monospace ; font-size: 10.5pt&quot;&gt;&lt;span style=&quot;color: #e5c07b&quot;&gt;BeanFactory&lt;/span&gt;&lt;/pre&gt;" style="text;html=1;strokeColor=none;fillColor=none;align=center;verticalAlign=middle;whiteSpace=wrap;rounded=0;" vertex="1" parent="1">
          <mxGeometry x="80" y="50" width="60" height="30" as="geometry" />
        </mxCell>
        <mxCell id="SGQKVFIN_M6mXLM_hyoQ-6" style="edgeStyle=orthogonalEdgeStyle;rounded=0;orthogonalLoop=1;jettySize=auto;html=1;" edge="1" parent="1" source="SGQKVFIN_M6mXLM_hyoQ-2">
          <mxGeometry relative="1" as="geometry">
            <mxPoint x="260" y="140" as="targetPoint" />
          </mxGeometry>
        </mxCell>
        <mxCell id="SGQKVFIN_M6mXLM_hyoQ-2" value="&lt;pre style=&quot;background-color: #282c34 ; color: #bbbbbb ; font-family: &amp;#34;jetbrains mono&amp;#34; , monospace ; font-size: 10.5pt&quot;&gt;&lt;span style=&quot;color: #61afef&quot;&gt;getBean&lt;/span&gt;(&lt;span style=&quot;color: #e5c07b&quot;&gt;String &lt;/span&gt;&lt;span style=&quot;color: #d19a66&quot;&gt;name&lt;/span&gt;)&lt;/pre&gt;" style="ellipse;whiteSpace=wrap;html=1;" vertex="1" parent="1">
          <mxGeometry x="50" y="100" width="120" height="80" as="geometry" />
        </mxCell>
        <mxCell id="SGQKVFIN_M6mXLM_hyoQ-3" value="&lt;pre style=&quot;background-color: #282c34 ; color: #bbbbbb ; font-family: &amp;#34;jetbrains mono&amp;#34; , monospace ; font-size: 10.5pt&quot;&gt;&lt;span style=&quot;color: #e5c07b&quot;&gt;AbstractBeanFactory&lt;/span&gt;&lt;/pre&gt;" style="text;html=1;strokeColor=none;fillColor=none;align=center;verticalAlign=middle;whiteSpace=wrap;rounded=0;" vertex="1" parent="1">
          <mxGeometry x="310" y="50" width="60" height="30" as="geometry" />
        </mxCell>
        <mxCell id="SGQKVFIN_M6mXLM_hyoQ-10" style="edgeStyle=orthogonalEdgeStyle;curved=1;rounded=0;orthogonalLoop=1;jettySize=auto;html=1;" edge="1" parent="1" source="SGQKVFIN_M6mXLM_hyoQ-4" target="SGQKVFIN_M6mXLM_hyoQ-5">
          <mxGeometry relative="1" as="geometry">
            <Array as="points">
              <mxPoint x="340" y="80" />
              <mxPoint x="736" y="80" />
            </Array>
          </mxGeometry>
        </mxCell>
        <mxCell id="SGQKVFIN_M6mXLM_hyoQ-11" value="从缓存中查找bean" style="edgeLabel;html=1;align=center;verticalAlign=middle;resizable=0;points=[];" vertex="1" connectable="0" parent="SGQKVFIN_M6mXLM_hyoQ-10">
          <mxGeometry x="0.129" y="-2" relative="1" as="geometry">
            <mxPoint as="offset" />
          </mxGeometry>
        </mxCell>
        <mxCell id="SGQKVFIN_M6mXLM_hyoQ-4" value="&lt;pre style=&quot;background-color: #282c34 ; color: #bbbbbb ; font-family: &amp;#34;jetbrains mono&amp;#34; , monospace ; font-size: 10.5pt&quot;&gt;&lt;pre style=&quot;font-family: &amp;#34;jetbrains mono&amp;#34; , monospace ; font-size: 10.5pt&quot;&gt;&lt;span style=&quot;color: #61afef&quot;&gt;getSingleton&lt;/span&gt;(&lt;span style=&quot;color: #d19a66&quot;&gt;beanName,true&lt;/span&gt;)&lt;/pre&gt;&lt;/pre&gt;" style="ellipse;whiteSpace=wrap;html=1;" vertex="1" parent="1">
          <mxGeometry x="280" y="100" width="120" height="80" as="geometry" />
        </mxCell>
        <mxCell id="SGQKVFIN_M6mXLM_hyoQ-5" value="&lt;pre style=&quot;background-color: #282c34 ; color: #bbbbbb ; font-family: &amp;#34;jetbrains mono&amp;#34; , monospace ; font-size: 10.5pt&quot;&gt;&lt;table border=&quot;0&quot; cellpadding=&quot;0&quot; cellspacing=&quot;0&quot; style=&quot;max-width: 100% ; border-collapse: collapse ; border-spacing: 0px ; width: 1110px ; font-size: 13px ; color: rgb(51 , 51 , 51) ; text-indent: 0px ; background: none ; border-radius: 0px ; border: 0px ; height: auto ; line-height: 1.1em ; margin: 1px 0px ; outline: 0px ; overflow: visible ; padding: 0px ; position: static ; text-align: left ; vertical-align: baseline ; box-sizing: content-box ; font-family: &amp;#34;consolas&amp;#34; , &amp;#34;bitstream vera sans mono&amp;#34; , &amp;#34;courier new&amp;#34; , &amp;#34;courier&amp;#34; , monospace &amp;#34;important&amp;#34; ; min-height: auto&quot;&gt;&lt;tbody style=&quot;border-radius: 0px ; background: none ; border: 0px ; height: auto ; line-height: 1.1em ; margin: 0px ; outline: 0px ; overflow: visible ; padding: 0px ; position: static ; vertical-align: baseline ; width: auto ; box-sizing: content-box ; font-size: 1em ; min-height: auto&quot;&gt;&lt;tr style=&quot;margin: 0px ; padding: 0px ; border-radius: 0px ; background: none ; border: 0px ; height: auto ; line-height: 1.1em ; outline: 0px ; overflow: visible ; position: static ; vertical-align: baseline ; width: auto ; box-sizing: content-box ; font-size: 1em ; min-height: auto&quot;&gt;&lt;td class=&quot;gutter&quot; style=&quot;margin: 0px ; padding: 0px ; border-radius: 0px ; background: none ; border: 0px ; float: none ; height: auto ; line-height: 1.1em ; outline: 0px ; overflow: visible ; position: static ; vertical-align: baseline ; width: auto ; box-sizing: content-box ; font-size: 1em ; min-height: auto ; color: rgb(175 , 175 , 175)&quot;&gt;&lt;div class=&quot;line number1 index0 alt2&quot; style=&quot;border-radius: 0px ; background: none white ; border-width: 0px 3px 0px 0px ; border-right-style: solid ; border-right-color: rgb(108 , 226 , 108) ; float: none ; height: auto ; line-height: 1.1em ; margin: 0px ; outline: 0px ; overflow: visible ; padding: 0px 0.5em 0px 1em ; position: static ; text-align: right ; vertical-align: baseline ; width: auto ; box-sizing: content-box ; font-size: 1em ; min-height: auto&quot;&gt;1&lt;/div&gt;&lt;div class=&quot;line number2 index1 alt1&quot; style=&quot;border-radius: 0px ; background: none white ; border-width: 0px 3px 0px 0px ; border-right-style: solid ; border-right-color: rgb(108 , 226 , 108) ; float: none ; height: auto ; line-height: 1.1em ; margin: 0px ; outline: 0px ; overflow: visible ; padding: 0px 0.5em 0px 1em ; position: static ; text-align: right ; vertical-align: baseline ; width: auto ; box-sizing: content-box ; font-size: 1em ; min-height: auto&quot;&gt;2&lt;/div&gt;&lt;div class=&quot;line number3 index2 alt2&quot; style=&quot;border-radius: 0px ; background: none white ; border-width: 0px 3px 0px 0px ; border-right-style: solid ; border-right-color: rgb(108 , 226 , 108) ; float: none ; height: auto ; line-height: 1.1em ; margin: 0px ; outline: 0px ; overflow: visible ; padding: 0px 0.5em 0px 1em ; position: static ; text-align: right ; vertical-align: baseline ; width: auto ; box-sizing: content-box ; font-size: 1em ; min-height: auto&quot;&gt;3&lt;/div&gt;&lt;div class=&quot;line number4 index3 alt1&quot; style=&quot;border-radius: 0px ; background: none white ; border-width: 0px 3px 0px 0px ; border-right-style: solid ; border-right-color: rgb(108 , 226 , 108) ; float: none ; height: auto ; line-height: 1.1em ; margin: 0px ; outline: 0px ; overflow: visible ; padding: 0px 0.5em 0px 1em ; position: static ; text-align: right ; vertical-align: baseline ; width: auto ; box-sizing: content-box ; font-size: 1em ; min-height: auto&quot;&gt;4&lt;/div&gt;&lt;div class=&quot;line number5 index4 alt2&quot; style=&quot;border-radius: 0px ; background: none white ; border-width: 0px 3px 0px 0px ; border-right-style: solid ; border-right-color: rgb(108 , 226 , 108) ; float: none ; height: auto ; line-height: 1.1em ; margin: 0px ; outline: 0px ; overflow: visible ; padding: 0px 0.5em 0px 1em ; position: static ; text-align: right ; vertical-align: baseline ; width: auto ; box-sizing: content-box ; font-size: 1em ; min-height: auto&quot;&gt;5&lt;/div&gt;&lt;div class=&quot;line number6 index5 alt1&quot; style=&quot;border-radius: 0px ; background: none white ; border-width: 0px 3px 0px 0px ; border-right-style: solid ; border-right-color: rgb(108 , 226 , 108) ; float: none ; height: auto ; line-height: 1.1em ; margin: 0px ; outline: 0px ; overflow: visible ; padding: 0px 0.5em 0px 1em ; position: static ; text-align: right ; vertical-align: baseline ; width: auto ; box-sizing: content-box ; font-size: 1em ; min-height: auto&quot;&gt;6&lt;/div&gt;&lt;div class=&quot;line number7 index6 alt2&quot; style=&quot;border-radius: 0px ; background: none white ; border-width: 0px 3px 0px 0px ; border-right-style: solid ; border-right-color: rgb(108 , 226 , 108) ; float: none ; height: auto ; line-height: 1.1em ; margin: 0px ; outline: 0px ; overflow: visible ; padding: 0px 0.5em 0px 1em ; position: static ; text-align: right ; vertical-align: baseline ; width: auto ; box-sizing: content-box ; font-size: 1em ; min-height: auto&quot;&gt;7&lt;/div&gt;&lt;div class=&quot;line number8 index7 alt1&quot; style=&quot;border-radius: 0px ; background: none white ; border-width: 0px 3px 0px 0px ; border-right-style: solid ; border-right-color: rgb(108 , 226 , 108) ; float: none ; height: auto ; line-height: 1.1em ; margin: 0px ; outline: 0px ; overflow: visible ; padding: 0px 0.5em 0px 1em ; position: static ; text-align: right ; vertical-align: baseline ; width: auto ; box-sizing: content-box ; font-size: 1em ; min-height: auto&quot;&gt;8&lt;/div&gt;&lt;div class=&quot;line number9 index8 alt2&quot; style=&quot;border-radius: 0px ; background: none white ; border-width: 0px 3px 0px 0px ; border-right-style: solid ; border-right-color: rgb(108 , 226 , 108) ; float: none ; height: auto ; line-height: 1.1em ; margin: 0px ; outline: 0px ; overflow: visible ; padding: 0px 0.5em 0px 1em ; position: static ; text-align: right ; vertical-align: baseline ; width: auto ; box-sizing: content-box ; font-size: 1em ; min-height: auto&quot;&gt;9&lt;/div&gt;&lt;div class=&quot;line number10 index9 alt1&quot; style=&quot;border-radius: 0px ; background: none white ; border-width: 0px 3px 0px 0px ; border-right-style: solid ; border-right-color: rgb(108 , 226 , 108) ; float: none ; height: auto ; line-height: 1.1em ; margin: 0px ; outline: 0px ; overflow: visible ; padding: 0px 0.5em 0px 1em ; position: static ; text-align: right ; vertical-align: baseline ; width: auto ; box-sizing: content-box ; font-size: 1em ; min-height: auto&quot;&gt;10&lt;/div&gt;&lt;div class=&quot;line number11 index10 alt2&quot; style=&quot;border-radius: 0px ; background: none white ; border-width: 0px 3px 0px 0px ; border-right-style: solid ; border-right-color: rgb(108 , 226 , 108) ; float: none ; height: auto ; line-height: 1.1em ; margin: 0px ; outline: 0px ; overflow: visible ; padding: 0px 0.5em 0px 1em ; position: static ; text-align: right ; vertical-align: baseline ; width: auto ; box-sizing: content-box ; font-size: 1em ; min-height: auto&quot;&gt;11&lt;/div&gt;&lt;div class=&quot;line number12 index11 alt1&quot; style=&quot;border-radius: 0px ; background: none white ; border-width: 0px 3px 0px 0px ; border-right-style: solid ; border-right-color: rgb(108 , 226 , 108) ; float: none ; height: auto ; line-height: 1.1em ; margin: 0px ; outline: 0px ; overflow: visible ; padding: 0px 0.5em 0px 1em ; position: static ; text-align: right ; vertical-align: baseline ; width: auto ; box-sizing: content-box ; font-size: 1em ; min-height: auto&quot;&gt;12&lt;/div&gt;&lt;div class=&quot;line number13 index12 alt2&quot; style=&quot;border-radius: 0px ; background: none white ; border-width: 0px 3px 0px 0px ; border-right-style: solid ; border-right-color: rgb(108 , 226 , 108) ; float: none ; height: auto ; line-height: 1.1em ; margin: 0px ; outline: 0px ; overflow: visible ; padding: 0px 0.5em 0px 1em ; position: static ; text-align: right ; vertical-align: baseline ; width: auto ; box-sizing: content-box ; font-size: 1em ; min-height: auto&quot;&gt;13&lt;/div&gt;&lt;div class=&quot;line number14 index13 alt1&quot; style=&quot;border-radius: 0px ; background: none white ; border-width: 0px 3px 0px 0px ; border-right-style: solid ; border-right-color: rgb(108 , 226 , 108) ; float: none ; height: auto ; line-height: 1.1em ; margin: 0px ; outline: 0px ; overflow: visible ; padding: 0px 0.5em 0px 1em ; position: static ; text-align: right ; vertical-align: baseline ; width: auto ; box-sizing: content-box ; font-size: 1em ; min-height: auto&quot;&gt;14&lt;/div&gt;&lt;div class=&quot;line number15 index14 alt2&quot; style=&quot;border-radius: 0px ; background: none white ; border-width: 0px 3px 0px 0px ; border-right-style: solid ; border-right-color: rgb(108 , 226 , 108) ; float: none ; height: auto ; line-height: 1.1em ; margin: 0px ; outline: 0px ; overflow: visible ; padding: 0px 0.5em 0px 1em ; position: static ; text-align: right ; vertical-align: baseline ; width: auto ; box-sizing: content-box ; font-size: 1em ; min-height: auto&quot;&gt;15&lt;/div&gt;&lt;div class=&quot;line number16 index15 alt1&quot; style=&quot;border-radius: 0px ; background: none white ; border-width: 0px 3px 0px 0px ; border-right-style: solid ; border-right-color: rgb(108 , 226 , 108) ; float: none ; height: auto ; line-height: 1.1em ; margin: 0px ; outline: 0px ; overflow: visible ; padding: 0px 0.5em 0px 1em ; position: static ; text-align: right ; vertical-align: baseline ; width: auto ; box-sizing: content-box ; font-size: 1em ; min-height: auto&quot;&gt;16&lt;/div&gt;&lt;div class=&quot;line number17 index16 alt2&quot; style=&quot;border-radius: 0px ; background: none white ; border-width: 0px 3px 0px 0px ; border-right-style: solid ; border-right-color: rgb(108 , 226 , 108) ; float: none ; height: auto ; line-height: 1.1em ; margin: 0px ; outline: 0px ; overflow: visible ; padding: 0px 0.5em 0px 1em ; position: static ; text-align: right ; vertical-align: baseline ; width: auto ; box-sizing: content-box ; font-size: 1em ; min-height: auto&quot;&gt;17&lt;/div&gt;&lt;div class=&quot;line number18 index17 alt1&quot; style=&quot;border-radius: 0px ; background: none white ; border-width: 0px 3px 0px 0px ; border-right-style: solid ; border-right-color: rgb(108 , 226 , 108) ; float: none ; height: auto ; line-height: 1.1em ; margin: 0px ; outline: 0px ; overflow: visible ; padding: 0px 0.5em 0px 1em ; position: static ; text-align: right ; vertical-align: baseline ; width: auto ; box-sizing: content-box ; font-size: 1em ; min-height: auto&quot;&gt;18&lt;/div&gt;&lt;div class=&quot;line number19 index18 alt2&quot; style=&quot;border-radius: 0px ; background: none white ; border-width: 0px 3px 0px 0px ; border-right-style: solid ; border-right-color: rgb(108 , 226 , 108) ; float: none ; height: auto ; line-height: 1.1em ; margin: 0px ; outline: 0px ; overflow: visible ; padding: 0px 0.5em 0px 1em ; position: static ; text-align: right ; vertical-align: baseline ; width: auto ; box-sizing: content-box ; font-size: 1em ; min-height: auto&quot;&gt;19&lt;/div&gt;&lt;div class=&quot;line number20 index19 alt1&quot; style=&quot;border-radius: 0px ; background: none white ; border-width: 0px 3px 0px 0px ; border-right-style: solid ; border-right-color: rgb(108 , 226 , 108) ; float: none ; height: auto ; line-height: 1.1em ; margin: 0px ; outline: 0px ; overflow: visible ; padding: 0px 0.5em 0px 1em ; position: static ; text-align: right ; vertical-align: baseline ; width: auto ; box-sizing: content-box ; font-size: 1em ; min-height: auto&quot;&gt;20&lt;/div&gt;&lt;div class=&quot;line number21 index20 alt2&quot; style=&quot;border-radius: 0px ; background: none white ; border-width: 0px 3px 0px 0px ; border-right-style: solid ; border-right-color: rgb(108 , 226 , 108) ; float: none ; height: auto ; line-height: 1.1em ; margin: 0px ; outline: 0px ; overflow: visible ; padding: 0px 0.5em 0px 1em ; position: static ; text-align: right ; vertical-align: baseline ; width: auto ; box-sizing: content-box ; font-size: 1em ; min-height: auto&quot;&gt;21&lt;/div&gt;&lt;div class=&quot;line number22 index21 alt1&quot; style=&quot;border-radius: 0px ; background: none white ; border-width: 0px 3px 0px 0px ; border-right-style: solid ; border-right-color: rgb(108 , 226 , 108) ; float: none ; height: auto ; line-height: 1.1em ; margin: 0px ; outline: 0px ; overflow: visible ; padding: 0px 0.5em 0px 1em ; position: static ; text-align: right ; vertical-align: baseline ; width: auto ; box-sizing: content-box ; font-size: 1em ; min-height: auto&quot;&gt;22&lt;/div&gt;&lt;div class=&quot;line number23 index22 alt2&quot; style=&quot;border-radius: 0px ; background: none white ; border-width: 0px 3px 0px 0px ; border-right-style: solid ; border-right-color: rgb(108 , 226 , 108) ; float: none ; height: auto ; line-height: 1.1em ; margin: 0px ; outline: 0px ; overflow: visible ; padding: 0px 0.5em 0px 1em ; position: static ; text-align: right ; vertical-align: baseline ; width: auto ; box-sizing: content-box ; font-size: 1em ; min-height: auto&quot;&gt;23&lt;/div&gt;&lt;div class=&quot;line number24 index23 alt1&quot; style=&quot;border-radius: 0px ; background: none white ; border-width: 0px 3px 0px 0px ; border-right-style: solid ; border-right-color: rgb(108 , 226 , 108) ; float: none ; height: auto ; line-height: 1.1em ; margin: 0px ; outline: 0px ; overflow: visible ; padding: 0px 0.5em 0px 1em ; position: static ; text-align: right ; vertical-align: baseline ; width: auto ; box-sizing: content-box ; font-size: 1em ; min-height: auto&quot;&gt;24&lt;/div&gt;&lt;div class=&quot;line number25 index24 alt2&quot; style=&quot;border-radius: 0px ; background: none white ; border-width: 0px 3px 0px 0px ; border-right-style: solid ; border-right-color: rgb(108 , 226 , 108) ; float: none ; height: auto ; line-height: 1.1em ; margin: 0px ; outline: 0px ; overflow: visible ; padding: 0px 0.5em 0px 1em ; position: static ; text-align: right ; vertical-align: baseline ; width: auto ; box-sizing: content-box ; font-size: 1em ; min-height: auto&quot;&gt;25&lt;/div&gt;&lt;div class=&quot;line number26 index25 alt1&quot; style=&quot;border-radius: 0px ; background: none white ; border-width: 0px 3px 0px 0px ; border-right-style: solid ; border-right-color: rgb(108 , 226 , 108) ; float: none ; height: auto ; line-height: 1.1em ; margin: 0px ; outline: 0px ; overflow: visible ; padding: 0px 0.5em 0px 1em ; position: static ; text-align: right ; vertical-align: baseline ; width: auto ; box-sizing: content-box ; font-size: 1em ; min-height: auto&quot;&gt;26&lt;/div&gt;&lt;div class=&quot;line number27 index26 alt2&quot; style=&quot;border-radius: 0px ; background: none white ; border-width: 0px 3px 0px 0px ; border-right-style: solid ; border-right-color: rgb(108 , 226 , 108) ; float: none ; height: auto ; line-height: 1.1em ; margin: 0px ; outline: 0px ; overflow: visible ; padding: 0px 0.5em 0px 1em ; position: static ; text-align: right ; vertical-align: baseline ; width: auto ; box-sizing: content-box ; font-size: 1em ; min-height: auto&quot;&gt;27&lt;/div&gt;&lt;div class=&quot;line number28 index27 alt1&quot; style=&quot;border-radius: 0px ; background: none white ; border-width: 0px 3px 0px 0px ; border-right-style: solid ; border-right-color: rgb(108 , 226 , 108) ; float: none ; height: auto ; line-height: 1.1em ; margin: 0px ; outline: 0px ; overflow: visible ; padding: 0px 0.5em 0px 1em ; position: static ; text-align: right ; vertical-align: baseline ; width: auto ; box-sizing: content-box ; font-size: 1em ; min-height: auto&quot;&gt;28&lt;/div&gt;&lt;div class=&quot;line number29 index28 alt2&quot; style=&quot;border-radius: 0px ; background: none white ; border-width: 0px 3px 0px 0px ; border-right-style: solid ; border-right-color: rgb(108 , 226 , 108) ; float: none ; height: auto ; line-height: 1.1em ; margin: 0px ; outline: 0px ; overflow: visible ; padding: 0px 0.5em 0px 1em ; position: static ; text-align: right ; vertical-align: baseline ; width: auto ; box-sizing: content-box ; font-size: 1em ; min-height: auto&quot;&gt;29&lt;/div&gt;&lt;div class=&quot;line number30 index29 alt1&quot; style=&quot;border-radius: 0px ; background: none white ; border-width: 0px 3px 0px 0px ; border-right-style: solid ; border-right-color: rgb(108 , 226 , 108) ; float: none ; height: auto ; line-height: 1.1em ; margin: 0px ; outline: 0px ; overflow: visible ; padding: 0px 0.5em 0px 1em ; position: static ; text-align: right ; vertical-align: baseline ; width: auto ; box-sizing: content-box ; font-size: 1em ; min-height: auto&quot;&gt;30&lt;/div&gt;&lt;div class=&quot;line number31 index30 alt2&quot; style=&quot;border-radius: 0px ; background: none white ; border-width: 0px 3px 0px 0px ; border-right-style: solid ; border-right-color: rgb(108 , 226 , 108) ; float: none ; height: auto ; line-height: 1.1em ; margin: 0px ; outline: 0px ; overflow: visible ; padding: 0px 0.5em 0px 1em ; position: static ; text-align: right ; vertical-align: baseline ; width: auto ; box-sizing: content-box ; font-size: 1em ; min-height: auto&quot;&gt;31&lt;/div&gt;&lt;div class=&quot;line number32 index31 alt1&quot; style=&quot;border-radius: 0px ; background: none white ; border-width: 0px 3px 0px 0px ; border-right-style: solid ; border-right-color: rgb(108 , 226 , 108) ; float: none ; height: auto ; line-height: 1.1em ; margin: 0px ; outline: 0px ; overflow: visible ; padding: 0px 0.5em 0px 1em ; position: static ; text-align: right ; vertical-align: baseline ; width: auto ; box-sizing: content-box ; font-size: 1em ; min-height: auto&quot;&gt;32&lt;/div&gt;&lt;div class=&quot;line number33 index32 alt2&quot; style=&quot;border-radius: 0px ; background: none white ; border-width: 0px 3px 0px 0px ; border-right-style: solid ; border-right-color: rgb(108 , 226 , 108) ; float: none ; height: auto ; line-height: 1.1em ; margin: 0px ; outline: 0px ; overflow: visible ; padding: 0px 0.5em 0px 1em ; position: static ; text-align: right ; vertical-align: baseline ; width: auto ; box-sizing: content-box ; font-size: 1em ; min-height: auto&quot;&gt;33&lt;/div&gt;&lt;div class=&quot;line number34 index33 alt1&quot; style=&quot;border-radius: 0px ; background: none white ; border-width: 0px 3px 0px 0px ; border-right-style: solid ; border-right-color: rgb(108 , 226 , 108) ; float: none ; height: auto ; line-height: 1.1em ; margin: 0px ; outline: 0px ; overflow: visible ; padding: 0px 0.5em 0px 1em ; position: static ; text-align: right ; vertical-align: baseline ; width: auto ; box-sizing: content-box ; font-size: 1em ; min-height: auto&quot;&gt;34&lt;/div&gt;&lt;div class=&quot;line number35 index34 alt2&quot; style=&quot;border-radius: 0px ; background: none white ; border-width: 0px 3px 0px 0px ; border-right-style: solid ; border-right-color: rgb(108 , 226 , 108) ; float: none ; height: auto ; line-height: 1.1em ; margin: 0px ; outline: 0px ; overflow: visible ; padding: 0px 0.5em 0px 1em ; position: static ; text-align: right ; vertical-align: baseline ; width: auto ; box-sizing: content-box ; font-size: 1em ; min-height: auto&quot;&gt;35&lt;/div&gt;&lt;div class=&quot;line number36 index35 alt1&quot; style=&quot;border-radius: 0px ; background: none white ; border-width: 0px 3px 0px 0px ; border-right-style: solid ; border-right-color: rgb(108 , 226 , 108) ; float: none ; height: auto ; line-height: 1.1em ; margin: 0px ; outline: 0px ; overflow: visible ; padding: 0px 0.5em 0px 1em ; position: static ; text-align: right ; vertical-align: baseline ; width: auto ; box-sizing: content-box ; font-size: 1em ; min-height: auto&quot;&gt;36&lt;/div&gt;&lt;div class=&quot;line number37 index36 alt2&quot; style=&quot;border-radius: 0px ; background: none white ; border-width: 0px 3px 0px 0px ; border-right-style: solid ; border-right-color: rgb(108 , 226 , 108) ; float: none ; height: auto ; line-height: 1.1em ; margin: 0px ; outline: 0px ; overflow: visible ; padding: 0px 0.5em 0px 1em ; position: static ; text-align: right ; vertical-align: baseline ; width: auto ; box-sizing: content-box ; font-size: 1em ; min-height: auto&quot;&gt;37&lt;/div&gt;&lt;div class=&quot;line number38 index37 alt1&quot; style=&quot;border-radius: 0px ; background: none white ; border-width: 0px 3px 0px 0px ; border-right-style: solid ; border-right-color: rgb(108 , 226 , 108) ; float: none ; height: auto ; line-height: 1.1em ; margin: 0px ; outline: 0px ; overflow: visible ; padding: 0px 0.5em 0px 1em ; position: static ; text-align: right ; vertical-align: baseline ; width: auto ; box-sizing: content-box ; font-size: 1em ; min-height: auto&quot;&gt;38&lt;/div&gt;&lt;/td&gt;&lt;td class=&quot;code&quot; style=&quot;width: 1073px ; margin: 0px ; padding: 0px ; border-radius: 0px ; background: none ; border: 0px ; float: none ; height: auto ; line-height: 1.1em ; outline: 0px ; overflow: visible ; position: static ; vertical-align: baseline ; box-sizing: content-box ; font-size: 1em ; min-height: auto&quot;&gt;&lt;div class=&quot;container&quot; style=&quot;width: auto ; margin: 0px ; border-radius: 0px ; background: none ; border: 0px ; float: none ; height: auto ; line-height: 1.1em ; outline: 0px ; overflow: visible ; padding: 0px ; position: relative ; vertical-align: baseline ; box-sizing: content-box ; font-size: 1em ; min-height: auto&quot;&gt;&lt;div class=&quot;line number1 index0 alt2&quot; style=&quot;border-radius: 0px ; background: none white ; border: 0px ; float: none ; height: auto ; line-height: 1.1em ; margin: 0px ; outline: 0px ; overflow: visible ; padding: 0px 1em ; position: static ; vertical-align: baseline ; width: auto ; box-sizing: content-box ; font-size: 1em ; min-height: auto&quot;&gt;&lt;code class=&quot;java spaces&quot; style=&quot;color: rgb(221 , 17 , 68) ; padding: 0px ; font-family: &amp;#34;consolas&amp;#34; , &amp;#34;bitstream vera sans mono&amp;#34; , &amp;#34;courier new&amp;#34; , &amp;#34;courier&amp;#34; , monospace &amp;#34;important&amp;#34; ; font-size: 1em ; border-radius: 0px ; background: none ; border: 0px ; float: none ; height: auto ; line-height: 1.1em ; margin: 0px ; outline: 0px ; overflow: visible ; position: static ; vertical-align: baseline ; width: auto ; box-sizing: content-box ; min-height: auto&quot;&gt;&amp;nbsp;&amp;nbsp;&amp;nbsp;&amp;nbsp;&lt;/code&gt;&lt;code class=&quot;java keyword&quot; style=&quot;padding: 0px ; font-family: &amp;#34;consolas&amp;#34; , &amp;#34;bitstream vera sans mono&amp;#34; , &amp;#34;courier new&amp;#34; , &amp;#34;courier&amp;#34; , monospace &amp;#34;important&amp;#34; ; font-size: 1em ; color: rgb(0 , 102 , 153) ; border-radius: 0px ; background: none ; border: 0px ; float: none ; height: auto ; line-height: 1.1em ; margin: 0px ; outline: 0px ; overflow: visible ; position: static ; vertical-align: baseline ; width: auto ; box-sizing: content-box ; font-weight: bold ; min-height: auto&quot;&gt;protected&lt;/code&gt;&amp;nbsp;&lt;code class=&quot;java plain&quot; style=&quot;padding: 0px ; font-family: &amp;#34;consolas&amp;#34; , &amp;#34;bitstream vera sans mono&amp;#34; , &amp;#34;courier new&amp;#34; , &amp;#34;courier&amp;#34; , monospace &amp;#34;important&amp;#34; ; font-size: 1em ; color: black ; border-radius: 0px ; background: none ; border: 0px ; float: none ; height: auto ; line-height: 1.1em ; margin: 0px ; outline: 0px ; overflow: visible ; position: static ; vertical-align: baseline ; width: auto ; box-sizing: content-box ; min-height: auto&quot;&gt;Object&amp;nbsp;getSingleton(String&amp;nbsp;beanName,&amp;nbsp;&lt;/code&gt;&lt;code class=&quot;java keyword&quot; style=&quot;padding: 0px ; font-family: &amp;#34;consolas&amp;#34; , &amp;#34;bitstream vera sans mono&amp;#34; , &amp;#34;courier new&amp;#34; , &amp;#34;courier&amp;#34; , monospace &amp;#34;important&amp;#34; ; font-size: 1em ; color: rgb(0 , 102 , 153) ; border-radius: 0px ; background: none ; border: 0px ; float: none ; height: auto ; line-height: 1.1em ; margin: 0px ; outline: 0px ; overflow: visible ; position: static ; vertical-align: baseline ; width: auto ; box-sizing: content-box ; font-weight: bold ; min-height: auto&quot;&gt;boolean&lt;/code&gt;&amp;nbsp;&lt;code class=&quot;java plain&quot; style=&quot;padding: 0px ; font-family: &amp;#34;consolas&amp;#34; , &amp;#34;bitstream vera sans mono&amp;#34; , &amp;#34;courier new&amp;#34; , &amp;#34;courier&amp;#34; , monospace &amp;#34;important&amp;#34; ; font-size: 1em ; color: black ; border-radius: 0px ; background: none ; border: 0px ; float: none ; height: auto ; line-height: 1.1em ; margin: 0px ; outline: 0px ; overflow: visible ; position: static ; vertical-align: baseline ; width: auto ; box-sizing: content-box ; min-height: auto&quot;&gt;allowEarlyReference)&amp;nbsp;{&lt;/code&gt;&lt;/div&gt;&lt;div class=&quot;line number2 index1 alt1&quot; style=&quot;border-radius: 0px ; background: none white ; border: 0px ; float: none ; height: auto ; line-height: 1.1em ; margin: 0px ; outline: 0px ; overflow: visible ; padding: 0px 1em ; position: static ; vertical-align: baseline ; width: auto ; box-sizing: content-box ; font-size: 1em ; min-height: auto&quot;&gt;&lt;code class=&quot;java spaces&quot; style=&quot;color: rgb(221 , 17 , 68) ; padding: 0px ; font-family: &amp;#34;consolas&amp;#34; , &amp;#34;bitstream vera sans mono&amp;#34; , &amp;#34;courier new&amp;#34; , &amp;#34;courier&amp;#34; , monospace &amp;#34;important&amp;#34; ; font-size: 1em ; border-radius: 0px ; background: none ; border: 0px ; float: none ; height: auto ; line-height: 1.1em ; margin: 0px ; outline: 0px ; overflow: visible ; position: static ; vertical-align: baseline ; width: auto ; box-sizing: content-box ; min-height: auto&quot;&gt;&amp;nbsp;&amp;nbsp;&amp;nbsp;&amp;nbsp;&amp;nbsp;&amp;nbsp;&amp;nbsp;&amp;nbsp;&lt;/code&gt;&lt;code class=&quot;java comments&quot; style=&quot;padding: 0px ; font-family: &amp;#34;consolas&amp;#34; , &amp;#34;bitstream vera sans mono&amp;#34; , &amp;#34;courier new&amp;#34; , &amp;#34;courier&amp;#34; , monospace &amp;#34;important&amp;#34; ; font-size: 1em ; color: rgb(0 , 130 , 0) ; border-radius: 0px ; background: none ; border: 0px ; float: none ; height: auto ; line-height: 1.1em ; margin: 0px ; outline: 0px ; overflow: visible ; position: static ; vertical-align: baseline ; width: auto ; box-sizing: content-box ; min-height: auto&quot;&gt;//&amp;nbsp;从一级缓存获取，key=beanName&amp;nbsp;value=bean&lt;/code&gt;&lt;/div&gt;&lt;div class=&quot;line number3 index2 alt2&quot; style=&quot;border-radius: 0px ; background: none white ; border: 0px ; float: none ; height: auto ; line-height: 1.1em ; margin: 0px ; outline: 0px ; overflow: visible ; padding: 0px 1em ; position: static ; vertical-align: baseline ; width: auto ; box-sizing: content-box ; font-size: 1em ; min-height: auto&quot;&gt;&lt;code class=&quot;java spaces&quot; style=&quot;color: rgb(221 , 17 , 68) ; padding: 0px ; font-family: &amp;#34;consolas&amp;#34; , &amp;#34;bitstream vera sans mono&amp;#34; , &amp;#34;courier new&amp;#34; , &amp;#34;courier&amp;#34; , monospace &amp;#34;important&amp;#34; ; font-size: 1em ; border-radius: 0px ; background: none ; border: 0px ; float: none ; height: auto ; line-height: 1.1em ; margin: 0px ; outline: 0px ; overflow: visible ; position: static ; vertical-align: baseline ; width: auto ; box-sizing: content-box ; min-height: auto&quot;&gt;&amp;nbsp;&amp;nbsp;&amp;nbsp;&amp;nbsp;&amp;nbsp;&amp;nbsp;&amp;nbsp;&amp;nbsp;&lt;/code&gt;&lt;code class=&quot;java plain&quot; style=&quot;padding: 0px ; font-family: &amp;#34;consolas&amp;#34; , &amp;#34;bitstream vera sans mono&amp;#34; , &amp;#34;courier new&amp;#34; , &amp;#34;courier&amp;#34; , monospace &amp;#34;important&amp;#34; ; font-size: 1em ; color: black ; border-radius: 0px ; background: none ; border: 0px ; float: none ; height: auto ; line-height: 1.1em ; margin: 0px ; outline: 0px ; overflow: visible ; position: static ; vertical-align: baseline ; width: auto ; box-sizing: content-box ; min-height: auto&quot;&gt;Object&amp;nbsp;singletonObject&amp;nbsp;=&amp;nbsp;&lt;/code&gt;&lt;code class=&quot;java keyword&quot; style=&quot;padding: 0px ; font-family: &amp;#34;consolas&amp;#34; , &amp;#34;bitstream vera sans mono&amp;#34; , &amp;#34;courier new&amp;#34; , &amp;#34;courier&amp;#34; , monospace &amp;#34;important&amp;#34; ; font-size: 1em ; color: rgb(0 , 102 , 153) ; border-radius: 0px ; background: none ; border: 0px ; float: none ; height: auto ; line-height: 1.1em ; margin: 0px ; outline: 0px ; overflow: visible ; position: static ; vertical-align: baseline ; width: auto ; box-sizing: content-box ; font-weight: bold ; min-height: auto&quot;&gt;this&lt;/code&gt;&lt;code class=&quot;java plain&quot; style=&quot;padding: 0px ; font-family: &amp;#34;consolas&amp;#34; , &amp;#34;bitstream vera sans mono&amp;#34; , &amp;#34;courier new&amp;#34; , &amp;#34;courier&amp;#34; , monospace &amp;#34;important&amp;#34; ; font-size: 1em ; color: black ; border-radius: 0px ; background: none ; border: 0px ; float: none ; height: auto ; line-height: 1.1em ; margin: 0px ; outline: 0px ; overflow: visible ; position: static ; vertical-align: baseline ; width: auto ; box-sizing: content-box ; min-height: auto&quot;&gt;.singletonObjects.get(beanName);&lt;/code&gt;&lt;/div&gt;&lt;div class=&quot;line number4 index3 alt1&quot; style=&quot;border-radius: 0px ; background: none white ; border: 0px ; float: none ; height: auto ; line-height: 1.1em ; margin: 0px ; outline: 0px ; overflow: visible ; padding: 0px 1em ; position: static ; vertical-align: baseline ; width: auto ; box-sizing: content-box ; font-size: 1em ; min-height: auto&quot;&gt;&lt;code class=&quot;java spaces&quot; style=&quot;color: rgb(221 , 17 , 68) ; padding: 0px ; font-family: &amp;#34;consolas&amp;#34; , &amp;#34;bitstream vera sans mono&amp;#34; , &amp;#34;courier new&amp;#34; , &amp;#34;courier&amp;#34; , monospace &amp;#34;important&amp;#34; ; font-size: 1em ; border-radius: 0px ; background: none ; border: 0px ; float: none ; height: auto ; line-height: 1.1em ; margin: 0px ; outline: 0px ; overflow: visible ; position: static ; vertical-align: baseline ; width: auto ; box-sizing: content-box ; min-height: auto&quot;&gt;&amp;nbsp;&amp;nbsp;&amp;nbsp;&amp;nbsp;&amp;nbsp;&amp;nbsp;&amp;nbsp;&amp;nbsp;&lt;/code&gt;&lt;code class=&quot;java keyword&quot; style=&quot;padding: 0px ; font-family: &amp;#34;consolas&amp;#34; , &amp;#34;bitstream vera sans mono&amp;#34; , &amp;#34;courier new&amp;#34; , &amp;#34;courier&amp;#34; , monospace &amp;#34;important&amp;#34; ; font-size: 1em ; color: rgb(0 , 102 , 153) ; border-radius: 0px ; background: none ; border: 0px ; float: none ; height: auto ; line-height: 1.1em ; margin: 0px ; outline: 0px ; overflow: visible ; position: static ; vertical-align: baseline ; width: auto ; box-sizing: content-box ; font-weight: bold ; min-height: auto&quot;&gt;if&lt;/code&gt;&amp;nbsp;&lt;code class=&quot;java plain&quot; style=&quot;padding: 0px ; font-family: &amp;#34;consolas&amp;#34; , &amp;#34;bitstream vera sans mono&amp;#34; , &amp;#34;courier new&amp;#34; , &amp;#34;courier&amp;#34; , monospace &amp;#34;important&amp;#34; ; font-size: 1em ; color: black ; border-radius: 0px ; background: none ; border: 0px ; float: none ; height: auto ; line-height: 1.1em ; margin: 0px ; outline: 0px ; overflow: visible ; position: static ; vertical-align: baseline ; width: auto ; box-sizing: content-box ; min-height: auto&quot;&gt;(singletonObject&amp;nbsp;==&amp;nbsp;&lt;/code&gt;&lt;code class=&quot;java keyword&quot; style=&quot;padding: 0px ; font-family: &amp;#34;consolas&amp;#34; , &amp;#34;bitstream vera sans mono&amp;#34; , &amp;#34;courier new&amp;#34; , &amp;#34;courier&amp;#34; , monospace &amp;#34;important&amp;#34; ; font-size: 1em ; color: rgb(0 , 102 , 153) ; border-radius: 0px ; background: none ; border: 0px ; float: none ; height: auto ; line-height: 1.1em ; margin: 0px ; outline: 0px ; overflow: visible ; position: static ; vertical-align: baseline ; width: auto ; box-sizing: content-box ; font-weight: bold ; min-height: auto&quot;&gt;null&lt;/code&gt;&amp;nbsp;&lt;code class=&quot;java plain&quot; style=&quot;padding: 0px ; font-family: &amp;#34;consolas&amp;#34; , &amp;#34;bitstream vera sans mono&amp;#34; , &amp;#34;courier new&amp;#34; , &amp;#34;courier&amp;#34; , monospace &amp;#34;important&amp;#34; ; font-size: 1em ; color: black ; border-radius: 0px ; background: none ; border: 0px ; float: none ; height: auto ; line-height: 1.1em ; margin: 0px ; outline: 0px ; overflow: visible ; position: static ; vertical-align: baseline ; width: auto ; box-sizing: content-box ; min-height: auto&quot;&gt;&amp;amp;&amp;amp;&amp;nbsp;isSingletonCurrentlyInCreation(beanName))&amp;nbsp;{&lt;/code&gt;&lt;/div&gt;&lt;div class=&quot;line number5 index4 alt2&quot; style=&quot;border-radius: 0px ; background: none white ; border: 0px ; float: none ; height: auto ; line-height: 1.1em ; margin: 0px ; outline: 0px ; overflow: visible ; padding: 0px 1em ; position: static ; vertical-align: baseline ; width: auto ; box-sizing: content-box ; font-size: 1em ; min-height: auto&quot;&gt;&lt;code class=&quot;java spaces&quot; style=&quot;color: rgb(221 , 17 , 68) ; padding: 0px ; font-family: &amp;#34;consolas&amp;#34; , &amp;#34;bitstream vera sans mono&amp;#34; , &amp;#34;courier new&amp;#34; , &amp;#34;courier&amp;#34; , monospace &amp;#34;important&amp;#34; ; font-size: 1em ; border-radius: 0px ; background: none ; border: 0px ; float: none ; height: auto ; line-height: 1.1em ; margin: 0px ; outline: 0px ; overflow: visible ; position: static ; vertical-align: baseline ; width: auto ; box-sizing: content-box ; min-height: auto&quot;&gt;&amp;nbsp;&amp;nbsp;&amp;nbsp;&amp;nbsp;&amp;nbsp;&amp;nbsp;&amp;nbsp;&amp;nbsp;&amp;nbsp;&amp;nbsp;&amp;nbsp;&amp;nbsp;&lt;/code&gt;&lt;code class=&quot;java keyword&quot; style=&quot;padding: 0px ; font-family: &amp;#34;consolas&amp;#34; , &amp;#34;bitstream vera sans mono&amp;#34; , &amp;#34;courier new&amp;#34; , &amp;#34;courier&amp;#34; , monospace &amp;#34;important&amp;#34; ; font-size: 1em ; color: rgb(0 , 102 , 153) ; border-radius: 0px ; background: none ; border: 0px ; float: none ; height: auto ; line-height: 1.1em ; margin: 0px ; outline: 0px ; overflow: visible ; position: static ; vertical-align: baseline ; width: auto ; box-sizing: content-box ; font-weight: bold ; min-height: auto&quot;&gt;synchronized&lt;/code&gt;&amp;nbsp;&lt;code class=&quot;java plain&quot; style=&quot;padding: 0px ; font-family: &amp;#34;consolas&amp;#34; , &amp;#34;bitstream vera sans mono&amp;#34; , &amp;#34;courier new&amp;#34; , &amp;#34;courier&amp;#34; , monospace &amp;#34;important&amp;#34; ; font-size: 1em ; color: black ; border-radius: 0px ; background: none ; border: 0px ; float: none ; height: auto ; line-height: 1.1em ; margin: 0px ; outline: 0px ; overflow: visible ; position: static ; vertical-align: baseline ; width: auto ; box-sizing: content-box ; min-height: auto&quot;&gt;(&lt;/code&gt;&lt;code class=&quot;java keyword&quot; style=&quot;padding: 0px ; font-family: &amp;#34;consolas&amp;#34; , &amp;#34;bitstream vera sans mono&amp;#34; , &amp;#34;courier new&amp;#34; , &amp;#34;courier&amp;#34; , monospace &amp;#34;important&amp;#34; ; font-size: 1em ; color: rgb(0 , 102 , 153) ; border-radius: 0px ; background: none ; border: 0px ; float: none ; height: auto ; line-height: 1.1em ; margin: 0px ; outline: 0px ; overflow: visible ; position: static ; vertical-align: baseline ; width: auto ; box-sizing: content-box ; font-weight: bold ; min-height: auto&quot;&gt;this&lt;/code&gt;&lt;code class=&quot;java plain&quot; style=&quot;padding: 0px ; font-family: &amp;#34;consolas&amp;#34; , &amp;#34;bitstream vera sans mono&amp;#34; , &amp;#34;courier new&amp;#34; , &amp;#34;courier&amp;#34; , monospace &amp;#34;important&amp;#34; ; font-size: 1em ; color: black ; border-radius: 0px ; background: none ; border: 0px ; float: none ; height: auto ; line-height: 1.1em ; margin: 0px ; outline: 0px ; overflow: visible ; position: static ; vertical-align: baseline ; width: auto ; box-sizing: content-box ; min-height: auto&quot;&gt;.singletonObjects)&amp;nbsp;{&lt;/code&gt;&lt;/div&gt;&lt;div class=&quot;line number6 index5 alt1&quot; style=&quot;border-radius: 0px ; background: none white ; border: 0px ; float: none ; height: auto ; line-height: 1.1em ; margin: 0px ; outline: 0px ; overflow: visible ; padding: 0px 1em ; position: static ; vertical-align: baseline ; width: auto ; box-sizing: content-box ; font-size: 1em ; min-height: auto&quot;&gt;&lt;code class=&quot;java spaces&quot; style=&quot;color: rgb(221 , 17 , 68) ; padding: 0px ; font-family: &amp;#34;consolas&amp;#34; , &amp;#34;bitstream vera sans mono&amp;#34; , &amp;#34;courier new&amp;#34; , &amp;#34;courier&amp;#34; , monospace &amp;#34;important&amp;#34; ; font-size: 1em ; border-radius: 0px ; background: none ; border: 0px ; float: none ; height: auto ; line-height: 1.1em ; margin: 0px ; outline: 0px ; overflow: visible ; position: static ; vertical-align: baseline ; width: auto ; box-sizing: content-box ; min-height: auto&quot;&gt;&amp;nbsp;&amp;nbsp;&amp;nbsp;&amp;nbsp;&amp;nbsp;&amp;nbsp;&amp;nbsp;&amp;nbsp;&amp;nbsp;&amp;nbsp;&amp;nbsp;&amp;nbsp;&amp;nbsp;&amp;nbsp;&amp;nbsp;&amp;nbsp;&lt;/code&gt;&lt;code class=&quot;java comments&quot; style=&quot;padding: 0px ; font-family: &amp;#34;consolas&amp;#34; , &amp;#34;bitstream vera sans mono&amp;#34; , &amp;#34;courier new&amp;#34; , &amp;#34;courier&amp;#34; , monospace &amp;#34;important&amp;#34; ; font-size: 1em ; color: rgb(0 , 130 , 0) ; border-radius: 0px ; background: none ; border: 0px ; float: none ; height: auto ; line-height: 1.1em ; margin: 0px ; outline: 0px ; overflow: visible ; position: static ; vertical-align: baseline ; width: auto ; box-sizing: content-box ; min-height: auto&quot;&gt;//&amp;nbsp;从二级缓存获取，key=beanName&amp;nbsp;value=bean&lt;/code&gt;&lt;/div&gt;&lt;div class=&quot;line number7 index6 alt2&quot; style=&quot;border-radius: 0px ; background: none white ; border: 0px ; float: none ; height: auto ; line-height: 1.1em ; margin: 0px ; outline: 0px ; overflow: visible ; padding: 0px 1em ; position: static ; vertical-align: baseline ; width: auto ; box-sizing: content-box ; font-size: 1em ; min-height: auto&quot;&gt;&lt;code class=&quot;java spaces&quot; style=&quot;color: rgb(221 , 17 , 68) ; padding: 0px ; font-family: &amp;#34;consolas&amp;#34; , &amp;#34;bitstream vera sans mono&amp;#34; , &amp;#34;courier new&amp;#34; , &amp;#34;courier&amp;#34; , monospace &amp;#34;important&amp;#34; ; font-size: 1em ; border-radius: 0px ; background: none ; border: 0px ; float: none ; height: auto ; line-height: 1.1em ; margin: 0px ; outline: 0px ; overflow: visible ; position: static ; vertical-align: baseline ; width: auto ; box-sizing: content-box ; min-height: auto&quot;&gt;&amp;nbsp;&amp;nbsp;&amp;nbsp;&amp;nbsp;&amp;nbsp;&amp;nbsp;&amp;nbsp;&amp;nbsp;&amp;nbsp;&amp;nbsp;&amp;nbsp;&amp;nbsp;&amp;nbsp;&amp;nbsp;&amp;nbsp;&amp;nbsp;&lt;/code&gt;&lt;code class=&quot;java plain&quot; style=&quot;padding: 0px ; font-family: &amp;#34;consolas&amp;#34; , &amp;#34;bitstream vera sans mono&amp;#34; , &amp;#34;courier new&amp;#34; , &amp;#34;courier&amp;#34; , monospace &amp;#34;important&amp;#34; ; font-size: 1em ; color: black ; border-radius: 0px ; background: none ; border: 0px ; float: none ; height: auto ; line-height: 1.1em ; margin: 0px ; outline: 0px ; overflow: visible ; position: static ; vertical-align: baseline ; width: auto ; box-sizing: content-box ; min-height: auto&quot;&gt;singletonObject&amp;nbsp;=&amp;nbsp;&lt;/code&gt;&lt;code class=&quot;java keyword&quot; style=&quot;padding: 0px ; font-family: &amp;#34;consolas&amp;#34; , &amp;#34;bitstream vera sans mono&amp;#34; , &amp;#34;courier new&amp;#34; , &amp;#34;courier&amp;#34; , monospace &amp;#34;important&amp;#34; ; font-size: 1em ; color: rgb(0 , 102 , 153) ; border-radius: 0px ; background: none ; border: 0px ; float: none ; height: auto ; line-height: 1.1em ; margin: 0px ; outline: 0px ; overflow: visible ; position: static ; vertical-align: baseline ; width: auto ; box-sizing: content-box ; font-weight: bold ; min-height: auto&quot;&gt;this&lt;/code&gt;&lt;code class=&quot;java plain&quot; style=&quot;padding: 0px ; font-family: &amp;#34;consolas&amp;#34; , &amp;#34;bitstream vera sans mono&amp;#34; , &amp;#34;courier new&amp;#34; , &amp;#34;courier&amp;#34; , monospace &amp;#34;important&amp;#34; ; font-size: 1em ; color: black ; border-radius: 0px ; background: none ; border: 0px ; float: none ; height: auto ; line-height: 1.1em ; margin: 0px ; outline: 0px ; overflow: visible ; position: static ; vertical-align: baseline ; width: auto ; box-sizing: content-box ; min-height: auto&quot;&gt;.earlySingletonObjects.get(beanName);&lt;/code&gt;&lt;/div&gt;&lt;div class=&quot;line number8 index7 alt1&quot; style=&quot;border-radius: 0px ; background: none white ; border: 0px ; float: none ; height: auto ; line-height: 1.1em ; margin: 0px ; outline: 0px ; overflow: visible ; padding: 0px 1em ; position: static ; vertical-align: baseline ; width: auto ; box-sizing: content-box ; font-size: 1em ; min-height: auto&quot;&gt;&lt;code class=&quot;java spaces&quot; style=&quot;color: rgb(221 , 17 , 68) ; padding: 0px ; font-family: &amp;#34;consolas&amp;#34; , &amp;#34;bitstream vera sans mono&amp;#34; , &amp;#34;courier new&amp;#34; , &amp;#34;courier&amp;#34; , monospace &amp;#34;important&amp;#34; ; font-size: 1em ; border-radius: 0px ; background: none ; border: 0px ; float: none ; height: auto ; line-height: 1.1em ; margin: 0px ; outline: 0px ; overflow: visible ; position: static ; vertical-align: baseline ; width: auto ; box-sizing: content-box ; min-height: auto&quot;&gt;&amp;nbsp;&amp;nbsp;&amp;nbsp;&amp;nbsp;&amp;nbsp;&amp;nbsp;&amp;nbsp;&amp;nbsp;&amp;nbsp;&amp;nbsp;&amp;nbsp;&amp;nbsp;&amp;nbsp;&amp;nbsp;&amp;nbsp;&amp;nbsp;&lt;/code&gt;&lt;code class=&quot;java comments&quot; style=&quot;padding: 0px ; font-family: &amp;#34;consolas&amp;#34; , &amp;#34;bitstream vera sans mono&amp;#34; , &amp;#34;courier new&amp;#34; , &amp;#34;courier&amp;#34; , monospace &amp;#34;important&amp;#34; ; font-size: 1em ; color: rgb(0 , 130 , 0) ; border-radius: 0px ; background: none ; border: 0px ; float: none ; height: auto ; line-height: 1.1em ; margin: 0px ; outline: 0px ; overflow: visible ; position: static ; vertical-align: baseline ; width: auto ; box-sizing: content-box ; min-height: auto&quot;&gt;//&amp;nbsp;是否允许循环引用&lt;/code&gt;&lt;/div&gt;&lt;div class=&quot;line number9 index8 alt2&quot; style=&quot;border-radius: 0px ; background: none white ; border: 0px ; float: none ; height: auto ; line-height: 1.1em ; margin: 0px ; outline: 0px ; overflow: visible ; padding: 0px 1em ; position: static ; vertical-align: baseline ; width: auto ; box-sizing: content-box ; font-size: 1em ; min-height: auto&quot;&gt;&lt;code class=&quot;java spaces&quot; style=&quot;color: rgb(221 , 17 , 68) ; padding: 0px ; font-family: &amp;#34;consolas&amp;#34; , &amp;#34;bitstream vera sans mono&amp;#34; , &amp;#34;courier new&amp;#34; , &amp;#34;courier&amp;#34; , monospace &amp;#34;important&amp;#34; ; font-size: 1em ; border-radius: 0px ; background: none ; border: 0px ; float: none ; height: auto ; line-height: 1.1em ; margin: 0px ; outline: 0px ; overflow: visible ; position: static ; vertical-align: baseline ; width: auto ; box-sizing: content-box ; min-height: auto&quot;&gt;&amp;nbsp;&amp;nbsp;&amp;nbsp;&amp;nbsp;&amp;nbsp;&amp;nbsp;&amp;nbsp;&amp;nbsp;&amp;nbsp;&amp;nbsp;&amp;nbsp;&amp;nbsp;&amp;nbsp;&amp;nbsp;&amp;nbsp;&amp;nbsp;&lt;/code&gt;&lt;code class=&quot;java keyword&quot; style=&quot;padding: 0px ; font-family: &amp;#34;consolas&amp;#34; , &amp;#34;bitstream vera sans mono&amp;#34; , &amp;#34;courier new&amp;#34; , &amp;#34;courier&amp;#34; , monospace &amp;#34;important&amp;#34; ; font-size: 1em ; color: rgb(0 , 102 , 153) ; border-radius: 0px ; background: none ; border: 0px ; float: none ; height: auto ; line-height: 1.1em ; margin: 0px ; outline: 0px ; overflow: visible ; position: static ; vertical-align: baseline ; width: auto ; box-sizing: content-box ; font-weight: bold ; min-height: auto&quot;&gt;if&lt;/code&gt;&amp;nbsp;&lt;code class=&quot;java plain&quot; style=&quot;padding: 0px ; font-family: &amp;#34;consolas&amp;#34; , &amp;#34;bitstream vera sans mono&amp;#34; , &amp;#34;courier new&amp;#34; , &amp;#34;courier&amp;#34; , monospace &amp;#34;important&amp;#34; ; font-size: 1em ; color: black ; border-radius: 0px ; background: none ; border: 0px ; float: none ; height: auto ; line-height: 1.1em ; margin: 0px ; outline: 0px ; overflow: visible ; position: static ; vertical-align: baseline ; width: auto ; box-sizing: content-box ; min-height: auto&quot;&gt;(singletonObject&amp;nbsp;==&amp;nbsp;&lt;/code&gt;&lt;code class=&quot;java keyword&quot; style=&quot;padding: 0px ; font-family: &amp;#34;consolas&amp;#34; , &amp;#34;bitstream vera sans mono&amp;#34; , &amp;#34;courier new&amp;#34; , &amp;#34;courier&amp;#34; , monospace &amp;#34;important&amp;#34; ; font-size: 1em ; color: rgb(0 , 102 , 153) ; border-radius: 0px ; background: none ; border: 0px ; float: none ; height: auto ; line-height: 1.1em ; margin: 0px ; outline: 0px ; overflow: visible ; position: static ; vertical-align: baseline ; width: auto ; box-sizing: content-box ; font-weight: bold ; min-height: auto&quot;&gt;null&lt;/code&gt;&amp;nbsp;&lt;code class=&quot;java plain&quot; style=&quot;padding: 0px ; font-family: &amp;#34;consolas&amp;#34; , &amp;#34;bitstream vera sans mono&amp;#34; , &amp;#34;courier new&amp;#34; , &amp;#34;courier&amp;#34; , monospace &amp;#34;important&amp;#34; ; font-size: 1em ; color: black ; border-radius: 0px ; background: none ; border: 0px ; float: none ; height: auto ; line-height: 1.1em ; margin: 0px ; outline: 0px ; overflow: visible ; position: static ; vertical-align: baseline ; width: auto ; box-sizing: content-box ; min-height: auto&quot;&gt;&amp;amp;&amp;amp;&amp;nbsp;allowEarlyReference)&amp;nbsp;{&lt;/code&gt;&lt;/div&gt;&lt;div class=&quot;line number10 index9 alt1&quot; style=&quot;border-radius: 0px ; background: none white ; border: 0px ; float: none ; height: auto ; line-height: 1.1em ; margin: 0px ; outline: 0px ; overflow: visible ; padding: 0px 1em ; position: static ; vertical-align: baseline ; width: auto ; box-sizing: content-box ; font-size: 1em ; min-height: auto&quot;&gt;&lt;code class=&quot;java spaces&quot; style=&quot;color: rgb(221 , 17 , 68) ; padding: 0px ; font-family: &amp;#34;consolas&amp;#34; , &amp;#34;bitstream vera sans mono&amp;#34; , &amp;#34;courier new&amp;#34; , &amp;#34;courier&amp;#34; , monospace &amp;#34;important&amp;#34; ; font-size: 1em ; border-radius: 0px ; background: none ; border: 0px ; float: none ; height: auto ; line-height: 1.1em ; margin: 0px ; outline: 0px ; overflow: visible ; position: static ; vertical-align: baseline ; width: auto ; box-sizing: content-box ; min-height: auto&quot;&gt;&amp;nbsp;&amp;nbsp;&amp;nbsp;&amp;nbsp;&amp;nbsp;&amp;nbsp;&amp;nbsp;&amp;nbsp;&amp;nbsp;&amp;nbsp;&amp;nbsp;&amp;nbsp;&amp;nbsp;&amp;nbsp;&amp;nbsp;&amp;nbsp;&amp;nbsp;&amp;nbsp;&amp;nbsp;&amp;nbsp;&lt;/code&gt;&lt;code class=&quot;java preprocessor&quot; style=&quot;padding: 0px ; font-family: &amp;#34;consolas&amp;#34; , &amp;#34;bitstream vera sans mono&amp;#34; , &amp;#34;courier new&amp;#34; , &amp;#34;courier&amp;#34; , monospace &amp;#34;important&amp;#34; ; font-size: 1em ; color: gray ; border-radius: 0px ; background: none ; border: 0px ; float: none ; height: auto ; line-height: 1.1em ; margin: 0px ; outline: 0px ; overflow: visible ; position: static ; vertical-align: baseline ; width: auto ; box-sizing: content-box ; min-height: auto&quot;&gt;/**&lt;/code&gt;&lt;/div&gt;&lt;div class=&quot;line number11 index10 alt2&quot; style=&quot;border-radius: 0px ; background: none white ; border: 0px ; float: none ; height: auto ; line-height: 1.1em ; margin: 0px ; outline: 0px ; overflow: visible ; padding: 0px 1em ; position: static ; vertical-align: baseline ; width: auto ; box-sizing: content-box ; font-size: 1em ; min-height: auto&quot;&gt;&lt;code class=&quot;java spaces&quot; style=&quot;color: rgb(221 , 17 , 68) ; padding: 0px ; font-family: &amp;#34;consolas&amp;#34; , &amp;#34;bitstream vera sans mono&amp;#34; , &amp;#34;courier new&amp;#34; , &amp;#34;courier&amp;#34; , monospace &amp;#34;important&amp;#34; ; font-size: 1em ; border-radius: 0px ; background: none ; border: 0px ; float: none ; height: auto ; line-height: 1.1em ; margin: 0px ; outline: 0px ; overflow: visible ; position: static ; vertical-align: baseline ; width: auto ; box-sizing: content-box ; min-height: auto&quot;&gt;&amp;nbsp;&amp;nbsp;&amp;nbsp;&amp;nbsp;&amp;nbsp;&amp;nbsp;&amp;nbsp;&amp;nbsp;&amp;nbsp;&amp;nbsp;&amp;nbsp;&amp;nbsp;&amp;nbsp;&amp;nbsp;&amp;nbsp;&amp;nbsp;&amp;nbsp;&amp;nbsp;&amp;nbsp;&amp;nbsp;&amp;nbsp;&lt;/code&gt;&lt;code class=&quot;java preprocessor&quot; style=&quot;padding: 0px ; font-family: &amp;#34;consolas&amp;#34; , &amp;#34;bitstream vera sans mono&amp;#34; , &amp;#34;courier new&amp;#34; , &amp;#34;courier&amp;#34; , monospace &amp;#34;important&amp;#34; ; font-size: 1em ; color: gray ; border-radius: 0px ; background: none ; border: 0px ; float: none ; height: auto ; line-height: 1.1em ; margin: 0px ; outline: 0px ; overflow: visible ; position: static ; vertical-align: baseline ; width: auto ; box-sizing: content-box ; min-height: auto&quot;&gt;*&amp;nbsp;三级缓存获取，key=beanName&amp;nbsp;value=objectFactory，objectFactory中存储getObject()方法用于获取提前曝光的实例&lt;/code&gt;&lt;/div&gt;&lt;div class=&quot;line number12 index11 alt1&quot; style=&quot;border-radius: 0px ; background: none white ; border: 0px ; float: none ; height: auto ; line-height: 1.1em ; margin: 0px ; outline: 0px ; overflow: visible ; padding: 0px 1em ; position: static ; vertical-align: baseline ; width: auto ; box-sizing: content-box ; font-size: 1em ; min-height: auto&quot;&gt;&lt;code class=&quot;java spaces&quot; style=&quot;color: rgb(221 , 17 , 68) ; padding: 0px ; font-family: &amp;#34;consolas&amp;#34; , &amp;#34;bitstream vera sans mono&amp;#34; , &amp;#34;courier new&amp;#34; , &amp;#34;courier&amp;#34; , monospace &amp;#34;important&amp;#34; ; font-size: 1em ; border-radius: 0px ; background: none ; border: 0px ; float: none ; height: auto ; line-height: 1.1em ; margin: 0px ; outline: 0px ; overflow: visible ; position: static ; vertical-align: baseline ; width: auto ; box-sizing: content-box ; min-height: auto&quot;&gt;&amp;nbsp;&amp;nbsp;&amp;nbsp;&amp;nbsp;&amp;nbsp;&amp;nbsp;&amp;nbsp;&amp;nbsp;&amp;nbsp;&amp;nbsp;&amp;nbsp;&amp;nbsp;&amp;nbsp;&amp;nbsp;&amp;nbsp;&amp;nbsp;&amp;nbsp;&amp;nbsp;&amp;nbsp;&amp;nbsp;&amp;nbsp;&lt;/code&gt;&lt;code class=&quot;java preprocessor&quot; style=&quot;padding: 0px ; font-family: &amp;#34;consolas&amp;#34; , &amp;#34;bitstream vera sans mono&amp;#34; , &amp;#34;courier new&amp;#34; , &amp;#34;courier&amp;#34; , monospace &amp;#34;important&amp;#34; ; font-size: 1em ; color: gray ; border-radius: 0px ; background: none ; border: 0px ; float: none ; height: auto ; line-height: 1.1em ; margin: 0px ; outline: 0px ; overflow: visible ; position: static ; vertical-align: baseline ; width: auto ; box-sizing: content-box ; min-height: auto&quot;&gt;*&lt;/code&gt;&lt;/div&gt;&lt;div class=&quot;line number13 index12 alt2&quot; style=&quot;border-radius: 0px ; background: none white ; border: 0px ; float: none ; height: auto ; line-height: 1.1em ; margin: 0px ; outline: 0px ; overflow: visible ; padding: 0px 1em ; position: static ; vertical-align: baseline ; width: auto ; box-sizing: content-box ; font-size: 1em ; min-height: auto&quot;&gt;&lt;code class=&quot;java spaces&quot; style=&quot;color: rgb(221 , 17 , 68) ; padding: 0px ; font-family: &amp;#34;consolas&amp;#34; , &amp;#34;bitstream vera sans mono&amp;#34; , &amp;#34;courier new&amp;#34; , &amp;#34;courier&amp;#34; , monospace &amp;#34;important&amp;#34; ; font-size: 1em ; border-radius: 0px ; background: none ; border: 0px ; float: none ; height: auto ; line-height: 1.1em ; margin: 0px ; outline: 0px ; overflow: visible ; position: static ; vertical-align: baseline ; width: auto ; box-sizing: content-box ; min-height: auto&quot;&gt;&amp;nbsp;&amp;nbsp;&amp;nbsp;&amp;nbsp;&amp;nbsp;&amp;nbsp;&amp;nbsp;&amp;nbsp;&amp;nbsp;&amp;nbsp;&amp;nbsp;&amp;nbsp;&amp;nbsp;&amp;nbsp;&amp;nbsp;&amp;nbsp;&amp;nbsp;&amp;nbsp;&amp;nbsp;&amp;nbsp;&amp;nbsp;&lt;/code&gt;&lt;code class=&quot;java preprocessor&quot; style=&quot;padding: 0px ; font-family: &amp;#34;consolas&amp;#34; , &amp;#34;bitstream vera sans mono&amp;#34; , &amp;#34;courier new&amp;#34; , &amp;#34;courier&amp;#34; , monospace &amp;#34;important&amp;#34; ; font-size: 1em ; color: gray ; border-radius: 0px ; background: none ; border: 0px ; float: none ; height: auto ; line-height: 1.1em ; margin: 0px ; outline: 0px ; overflow: visible ; position: static ; vertical-align: baseline ; width: auto ; box-sizing: content-box ; min-height: auto&quot;&gt;*&amp;nbsp;而为什么不直接将实例缓存到二级缓存，而要多此一举将实例先封装到objectFactory中？&lt;/code&gt;&lt;/div&gt;&lt;div class=&quot;line number14 index13 alt1&quot; style=&quot;border-radius: 0px ; background: none white ; border: 0px ; float: none ; height: auto ; line-height: 1.1em ; margin: 0px ; outline: 0px ; overflow: visible ; padding: 0px 1em ; position: static ; vertical-align: baseline ; width: auto ; box-sizing: content-box ; font-size: 1em ; min-height: auto&quot;&gt;&lt;code class=&quot;java spaces&quot; style=&quot;color: rgb(221 , 17 , 68) ; padding: 0px ; font-family: &amp;#34;consolas&amp;#34; , &amp;#34;bitstream vera sans mono&amp;#34; , &amp;#34;courier new&amp;#34; , &amp;#34;courier&amp;#34; , monospace &amp;#34;important&amp;#34; ; font-size: 1em ; border-radius: 0px ; background: none ; border: 0px ; float: none ; height: auto ; line-height: 1.1em ; margin: 0px ; outline: 0px ; overflow: visible ; position: static ; vertical-align: baseline ; width: auto ; box-sizing: content-box ; min-height: auto&quot;&gt;&amp;nbsp;&amp;nbsp;&amp;nbsp;&amp;nbsp;&amp;nbsp;&amp;nbsp;&amp;nbsp;&amp;nbsp;&amp;nbsp;&amp;nbsp;&amp;nbsp;&amp;nbsp;&amp;nbsp;&amp;nbsp;&amp;nbsp;&amp;nbsp;&amp;nbsp;&amp;nbsp;&amp;nbsp;&amp;nbsp;&amp;nbsp;&lt;/code&gt;&lt;code class=&quot;java preprocessor&quot; style=&quot;padding: 0px ; font-family: &amp;#34;consolas&amp;#34; , &amp;#34;bitstream vera sans mono&amp;#34; , &amp;#34;courier new&amp;#34; , &amp;#34;courier&amp;#34; , monospace &amp;#34;important&amp;#34; ; font-size: 1em ; color: gray ; border-radius: 0px ; background: none ; border: 0px ; float: none ; height: auto ; line-height: 1.1em ; margin: 0px ; outline: 0px ; overflow: visible ; position: static ; vertical-align: baseline ; width: auto ; box-sizing: content-box ; min-height: auto&quot;&gt;*&amp;nbsp;主要关键点在getObject()方法并非直接返回实例，而是对实例又使用&lt;/code&gt;&lt;/div&gt;&lt;div class=&quot;line number15 index14 alt2&quot; style=&quot;border-radius: 0px ; background: none white ; border: 0px ; float: none ; height: auto ; line-height: 1.1em ; margin: 0px ; outline: 0px ; overflow: visible ; padding: 0px 1em ; position: static ; vertical-align: baseline ; width: auto ; box-sizing: content-box ; font-size: 1em ; min-height: auto&quot;&gt;&lt;code class=&quot;java spaces&quot; style=&quot;color: rgb(221 , 17 , 68) ; padding: 0px ; font-family: &amp;#34;consolas&amp;#34; , &amp;#34;bitstream vera sans mono&amp;#34; , &amp;#34;courier new&amp;#34; , &amp;#34;courier&amp;#34; , monospace &amp;#34;important&amp;#34; ; font-size: 1em ; border-radius: 0px ; background: none ; border: 0px ; float: none ; height: auto ; line-height: 1.1em ; margin: 0px ; outline: 0px ; overflow: visible ; position: static ; vertical-align: baseline ; width: auto ; box-sizing: content-box ; min-height: auto&quot;&gt;&amp;nbsp;&amp;nbsp;&amp;nbsp;&amp;nbsp;&amp;nbsp;&amp;nbsp;&amp;nbsp;&amp;nbsp;&amp;nbsp;&amp;nbsp;&amp;nbsp;&amp;nbsp;&amp;nbsp;&amp;nbsp;&amp;nbsp;&amp;nbsp;&amp;nbsp;&amp;nbsp;&amp;nbsp;&amp;nbsp;&amp;nbsp;&lt;/code&gt;&lt;code class=&quot;java preprocessor&quot; style=&quot;padding: 0px ; font-family: &amp;#34;consolas&amp;#34; , &amp;#34;bitstream vera sans mono&amp;#34; , &amp;#34;courier new&amp;#34; , &amp;#34;courier&amp;#34; , monospace &amp;#34;important&amp;#34; ; font-size: 1em ; color: gray ; border-radius: 0px ; background: none ; border: 0px ; float: none ; height: auto ; line-height: 1.1em ; margin: 0px ; outline: 0px ; overflow: visible ; position: static ; vertical-align: baseline ; width: auto ; box-sizing: content-box ; min-height: auto&quot;&gt;*&amp;nbsp;SmartInstantiationAwareBeanPostProcessor的getEarlyBeanReference方法对bean进行处理&lt;/code&gt;&lt;/div&gt;&lt;div class=&quot;line number16 index15 alt1&quot; style=&quot;border-radius: 0px ; background: none white ; border: 0px ; float: none ; height: auto ; line-height: 1.1em ; margin: 0px ; outline: 0px ; overflow: visible ; padding: 0px 1em ; position: static ; vertical-align: baseline ; width: auto ; box-sizing: content-box ; font-size: 1em ; min-height: auto&quot;&gt;&lt;code class=&quot;java spaces&quot; style=&quot;color: rgb(221 , 17 , 68) ; padding: 0px ; font-family: &amp;#34;consolas&amp;#34; , &amp;#34;bitstream vera sans mono&amp;#34; , &amp;#34;courier new&amp;#34; , &amp;#34;courier&amp;#34; , monospace &amp;#34;important&amp;#34; ; font-size: 1em ; border-radius: 0px ; background: none ; border: 0px ; float: none ; height: auto ; line-height: 1.1em ; margin: 0px ; outline: 0px ; overflow: visible ; position: static ; vertical-align: baseline ; width: auto ; box-sizing: content-box ; min-height: auto&quot;&gt;&amp;nbsp;&amp;nbsp;&amp;nbsp;&amp;nbsp;&amp;nbsp;&amp;nbsp;&amp;nbsp;&amp;nbsp;&amp;nbsp;&amp;nbsp;&amp;nbsp;&amp;nbsp;&amp;nbsp;&amp;nbsp;&amp;nbsp;&amp;nbsp;&amp;nbsp;&amp;nbsp;&amp;nbsp;&amp;nbsp;&amp;nbsp;&lt;/code&gt;&lt;code class=&quot;java preprocessor&quot; style=&quot;padding: 0px ; font-family: &amp;#34;consolas&amp;#34; , &amp;#34;bitstream vera sans mono&amp;#34; , &amp;#34;courier new&amp;#34; , &amp;#34;courier&amp;#34; , monospace &amp;#34;important&amp;#34; ; font-size: 1em ; color: gray ; border-radius: 0px ; background: none ; border: 0px ; float: none ; height: auto ; line-height: 1.1em ; margin: 0px ; outline: 0px ; overflow: visible ; position: static ; vertical-align: baseline ; width: auto ; box-sizing: content-box ; min-height: auto&quot;&gt;*&lt;/code&gt;&lt;/div&gt;&lt;div class=&quot;line number17 index16 alt2&quot; style=&quot;border-radius: 0px ; background: none white ; border: 0px ; float: none ; height: auto ; line-height: 1.1em ; margin: 0px ; outline: 0px ; overflow: visible ; padding: 0px 1em ; position: static ; vertical-align: baseline ; width: auto ; box-sizing: content-box ; font-size: 1em ; min-height: auto&quot;&gt;&lt;code class=&quot;java spaces&quot; style=&quot;color: rgb(221 , 17 , 68) ; padding: 0px ; font-family: &amp;#34;consolas&amp;#34; , &amp;#34;bitstream vera sans mono&amp;#34; , &amp;#34;courier new&amp;#34; , &amp;#34;courier&amp;#34; , monospace &amp;#34;important&amp;#34; ; font-size: 1em ; border-radius: 0px ; background: none ; border: 0px ; float: none ; height: auto ; line-height: 1.1em ; margin: 0px ; outline: 0px ; overflow: visible ; position: static ; vertical-align: baseline ; width: auto ; box-sizing: content-box ; min-height: auto&quot;&gt;&amp;nbsp;&amp;nbsp;&amp;nbsp;&amp;nbsp;&amp;nbsp;&amp;nbsp;&amp;nbsp;&amp;nbsp;&amp;nbsp;&amp;nbsp;&amp;nbsp;&amp;nbsp;&amp;nbsp;&amp;nbsp;&amp;nbsp;&amp;nbsp;&amp;nbsp;&amp;nbsp;&amp;nbsp;&amp;nbsp;&amp;nbsp;&lt;/code&gt;&lt;code class=&quot;java preprocessor&quot; style=&quot;padding: 0px ; font-family: &amp;#34;consolas&amp;#34; , &amp;#34;bitstream vera sans mono&amp;#34; , &amp;#34;courier new&amp;#34; , &amp;#34;courier&amp;#34; , monospace &amp;#34;important&amp;#34; ; font-size: 1em ; color: gray ; border-radius: 0px ; background: none ; border: 0px ; float: none ; height: auto ; line-height: 1.1em ; margin: 0px ; outline: 0px ; overflow: visible ; position: static ; vertical-align: baseline ; width: auto ; box-sizing: content-box ; min-height: auto&quot;&gt;*&amp;nbsp;也就是说，当spring中存在该后置处理器，所有的单例bean在实例化后都会被进行提前曝光到三级缓存中，&lt;/code&gt;&lt;/div&gt;&lt;div class=&quot;line number18 index17 alt1&quot; style=&quot;border-radius: 0px ; background: none white ; border: 0px ; float: none ; height: auto ; line-height: 1.1em ; margin: 0px ; outline: 0px ; overflow: visible ; padding: 0px 1em ; position: static ; vertical-align: baseline ; width: auto ; box-sizing: content-box ; font-size: 1em ; min-height: auto&quot;&gt;&lt;code class=&quot;java spaces&quot; style=&quot;color: rgb(221 , 17 , 68) ; padding: 0px ; font-family: &amp;#34;consolas&amp;#34; , &amp;#34;bitstream vera sans mono&amp;#34; , &amp;#34;courier new&amp;#34; , &amp;#34;courier&amp;#34; , monospace &amp;#34;important&amp;#34; ; font-size: 1em ; border-radius: 0px ; background: none ; border: 0px ; float: none ; height: auto ; line-height: 1.1em ; margin: 0px ; outline: 0px ; overflow: visible ; position: static ; vertical-align: baseline ; width: auto ; box-sizing: content-box ; min-height: auto&quot;&gt;&amp;nbsp;&amp;nbsp;&amp;nbsp;&amp;nbsp;&amp;nbsp;&amp;nbsp;&amp;nbsp;&amp;nbsp;&amp;nbsp;&amp;nbsp;&amp;nbsp;&amp;nbsp;&amp;nbsp;&amp;nbsp;&amp;nbsp;&amp;nbsp;&amp;nbsp;&amp;nbsp;&amp;nbsp;&amp;nbsp;&amp;nbsp;&lt;/code&gt;&lt;code class=&quot;java preprocessor&quot; style=&quot;padding: 0px ; font-family: &amp;#34;consolas&amp;#34; , &amp;#34;bitstream vera sans mono&amp;#34; , &amp;#34;courier new&amp;#34; , &amp;#34;courier&amp;#34; , monospace &amp;#34;important&amp;#34; ; font-size: 1em ; color: gray ; border-radius: 0px ; background: none ; border: 0px ; float: none ; height: auto ; line-height: 1.1em ; margin: 0px ; outline: 0px ; overflow: visible ; position: static ; vertical-align: baseline ; width: auto ; box-sizing: content-box ; min-height: auto&quot;&gt;*&amp;nbsp;但是并不是所有的bean都存在循环依赖，也就是三级缓存到二级缓存的步骤不一定都会被执行，有可能曝光后直接创建完成，没被提前引用过，&lt;/code&gt;&lt;/div&gt;&lt;div class=&quot;line number19 index18 alt2&quot; style=&quot;border-radius: 0px ; background: none white ; border: 0px ; float: none ; height: auto ; line-height: 1.1em ; margin: 0px ; outline: 0px ; overflow: visible ; padding: 0px 1em ; position: static ; vertical-align: baseline ; width: auto ; box-sizing: content-box ; font-size: 1em ; min-height: auto&quot;&gt;&lt;code class=&quot;java spaces&quot; style=&quot;color: rgb(221 , 17 , 68) ; padding: 0px ; font-family: &amp;#34;consolas&amp;#34; , &amp;#34;bitstream vera sans mono&amp;#34; , &amp;#34;courier new&amp;#34; , &amp;#34;courier&amp;#34; , monospace &amp;#34;important&amp;#34; ; font-size: 1em ; border-radius: 0px ; background: none ; border: 0px ; float: none ; height: auto ; line-height: 1.1em ; margin: 0px ; outline: 0px ; overflow: visible ; position: static ; vertical-align: baseline ; width: auto ; box-sizing: content-box ; min-height: auto&quot;&gt;&amp;nbsp;&amp;nbsp;&amp;nbsp;&amp;nbsp;&amp;nbsp;&amp;nbsp;&amp;nbsp;&amp;nbsp;&amp;nbsp;&amp;nbsp;&amp;nbsp;&amp;nbsp;&amp;nbsp;&amp;nbsp;&amp;nbsp;&amp;nbsp;&amp;nbsp;&amp;nbsp;&amp;nbsp;&amp;nbsp;&amp;nbsp;&lt;/code&gt;&lt;code class=&quot;java preprocessor&quot; style=&quot;padding: 0px ; font-family: &amp;#34;consolas&amp;#34; , &amp;#34;bitstream vera sans mono&amp;#34; , &amp;#34;courier new&amp;#34; , &amp;#34;courier&amp;#34; , monospace &amp;#34;important&amp;#34; ; font-size: 1em ; color: gray ; border-radius: 0px ; background: none ; border: 0px ; float: none ; height: auto ; line-height: 1.1em ; margin: 0px ; outline: 0px ; overflow: visible ; position: static ; vertical-align: baseline ; width: auto ; box-sizing: content-box ; min-height: auto&quot;&gt;*&amp;nbsp;就直接被加入到一级缓存中。因此可以确保只有提前曝光且被引用的bean才会进行该后置处理&lt;/code&gt;&lt;/div&gt;&lt;div class=&quot;line number20 index19 alt1&quot; style=&quot;border-radius: 0px ; background: none white ; border: 0px ; float: none ; height: auto ; line-height: 1.1em ; margin: 0px ; outline: 0px ; overflow: visible ; padding: 0px 1em ; position: static ; vertical-align: baseline ; width: auto ; box-sizing: content-box ; font-size: 1em ; min-height: auto&quot;&gt;&lt;code class=&quot;java spaces&quot; style=&quot;color: rgb(221 , 17 , 68) ; padding: 0px ; font-family: &amp;#34;consolas&amp;#34; , &amp;#34;bitstream vera sans mono&amp;#34; , &amp;#34;courier new&amp;#34; , &amp;#34;courier&amp;#34; , monospace &amp;#34;important&amp;#34; ; font-size: 1em ; border-radius: 0px ; background: none ; border: 0px ; float: none ; height: auto ; line-height: 1.1em ; margin: 0px ; outline: 0px ; overflow: visible ; position: static ; vertical-align: baseline ; width: auto ; box-sizing: content-box ; min-height: auto&quot;&gt;&amp;nbsp;&amp;nbsp;&amp;nbsp;&amp;nbsp;&amp;nbsp;&amp;nbsp;&amp;nbsp;&amp;nbsp;&amp;nbsp;&amp;nbsp;&amp;nbsp;&amp;nbsp;&amp;nbsp;&amp;nbsp;&amp;nbsp;&amp;nbsp;&amp;nbsp;&amp;nbsp;&amp;nbsp;&amp;nbsp;&lt;/code&gt;&lt;code class=&quot;java preprocessor&quot; style=&quot;padding: 0px ; font-family: &amp;#34;consolas&amp;#34; , &amp;#34;bitstream vera sans mono&amp;#34; , &amp;#34;courier new&amp;#34; , &amp;#34;courier&amp;#34; , monospace &amp;#34;important&amp;#34; ; font-size: 1em ; color: gray ; border-radius: 0px ; background: none ; border: 0px ; float: none ; height: auto ; line-height: 1.1em ; margin: 0px ; outline: 0px ; overflow: visible ; position: static ; vertical-align: baseline ; width: auto ; box-sizing: content-box ; min-height: auto&quot;&gt;*/&lt;/code&gt;&lt;/div&gt;&lt;div class=&quot;line number21 index20 alt2&quot; style=&quot;border-radius: 0px ; background: none white ; border: 0px ; float: none ; height: auto ; line-height: 1.1em ; margin: 0px ; outline: 0px ; overflow: visible ; padding: 0px 1em ; position: static ; vertical-align: baseline ; width: auto ; box-sizing: content-box ; font-size: 1em ; min-height: auto&quot;&gt;&lt;code class=&quot;java spaces&quot; style=&quot;color: rgb(221 , 17 , 68) ; padding: 0px ; font-family: &amp;#34;consolas&amp;#34; , &amp;#34;bitstream vera sans mono&amp;#34; , &amp;#34;courier new&amp;#34; , &amp;#34;courier&amp;#34; , monospace &amp;#34;important&amp;#34; ; font-size: 1em ; border-radius: 0px ; background: none ; border: 0px ; float: none ; height: auto ; line-height: 1.1em ; margin: 0px ; outline: 0px ; overflow: visible ; position: static ; vertical-align: baseline ; width: auto ; box-sizing: content-box ; min-height: auto&quot;&gt;&amp;nbsp;&amp;nbsp;&amp;nbsp;&amp;nbsp;&amp;nbsp;&amp;nbsp;&amp;nbsp;&amp;nbsp;&amp;nbsp;&amp;nbsp;&amp;nbsp;&amp;nbsp;&amp;nbsp;&amp;nbsp;&amp;nbsp;&amp;nbsp;&amp;nbsp;&amp;nbsp;&amp;nbsp;&amp;nbsp;&lt;/code&gt;&lt;code class=&quot;java plain&quot; style=&quot;padding: 0px ; font-family: &amp;#34;consolas&amp;#34; , &amp;#34;bitstream vera sans mono&amp;#34; , &amp;#34;courier new&amp;#34; , &amp;#34;courier&amp;#34; , monospace &amp;#34;important&amp;#34; ; font-size: 1em ; color: black ; border-radius: 0px ; background: none ; border: 0px ; float: none ; height: auto ; line-height: 1.1em ; margin: 0px ; outline: 0px ; overflow: visible ; position: static ; vertical-align: baseline ; width: auto ; box-sizing: content-box ; min-height: auto&quot;&gt;ObjectFactory&amp;lt;?&amp;gt;&amp;nbsp;singletonFactory&amp;nbsp;=&amp;nbsp;&lt;/code&gt;&lt;code class=&quot;java keyword&quot; style=&quot;padding: 0px ; font-family: &amp;#34;consolas&amp;#34; , &amp;#34;bitstream vera sans mono&amp;#34; , &amp;#34;courier new&amp;#34; , &amp;#34;courier&amp;#34; , monospace &amp;#34;important&amp;#34; ; font-size: 1em ; color: rgb(0 , 102 , 153) ; border-radius: 0px ; background: none ; border: 0px ; float: none ; height: auto ; line-height: 1.1em ; margin: 0px ; outline: 0px ; overflow: visible ; position: static ; vertical-align: baseline ; width: auto ; box-sizing: content-box ; font-weight: bold ; min-height: auto&quot;&gt;this&lt;/code&gt;&lt;code class=&quot;java plain&quot; style=&quot;padding: 0px ; font-family: &amp;#34;consolas&amp;#34; , &amp;#34;bitstream vera sans mono&amp;#34; , &amp;#34;courier new&amp;#34; , &amp;#34;courier&amp;#34; , monospace &amp;#34;important&amp;#34; ; font-size: 1em ; color: black ; border-radius: 0px ; background: none ; border: 0px ; float: none ; height: auto ; line-height: 1.1em ; margin: 0px ; outline: 0px ; overflow: visible ; position: static ; vertical-align: baseline ; width: auto ; box-sizing: content-box ; min-height: auto&quot;&gt;.singletonFactories.get(beanName);&lt;/code&gt;&lt;/div&gt;&lt;div class=&quot;line number22 index21 alt1&quot; style=&quot;border-radius: 0px ; background: none white ; border: 0px ; float: none ; height: auto ; line-height: 1.1em ; margin: 0px ; outline: 0px ; overflow: visible ; padding: 0px 1em ; position: static ; vertical-align: baseline ; width: auto ; box-sizing: content-box ; font-size: 1em ; min-height: auto&quot;&gt;&lt;code class=&quot;java spaces&quot; style=&quot;color: rgb(221 , 17 , 68) ; padding: 0px ; font-family: &amp;#34;consolas&amp;#34; , &amp;#34;bitstream vera sans mono&amp;#34; , &amp;#34;courier new&amp;#34; , &amp;#34;courier&amp;#34; , monospace &amp;#34;important&amp;#34; ; font-size: 1em ; border-radius: 0px ; background: none ; border: 0px ; float: none ; height: auto ; line-height: 1.1em ; margin: 0px ; outline: 0px ; overflow: visible ; position: static ; vertical-align: baseline ; width: auto ; box-sizing: content-box ; min-height: auto&quot;&gt;&amp;nbsp;&amp;nbsp;&amp;nbsp;&amp;nbsp;&amp;nbsp;&amp;nbsp;&amp;nbsp;&amp;nbsp;&amp;nbsp;&amp;nbsp;&amp;nbsp;&amp;nbsp;&amp;nbsp;&amp;nbsp;&amp;nbsp;&amp;nbsp;&amp;nbsp;&amp;nbsp;&amp;nbsp;&amp;nbsp;&lt;/code&gt;&lt;code class=&quot;java keyword&quot; style=&quot;padding: 0px ; font-family: &amp;#34;consolas&amp;#34; , &amp;#34;bitstream vera sans mono&amp;#34; , &amp;#34;courier new&amp;#34; , &amp;#34;courier&amp;#34; , monospace &amp;#34;important&amp;#34; ; font-size: 1em ; color: rgb(0 , 102 , 153) ; border-radius: 0px ; background: none ; border: 0px ; float: none ; height: auto ; line-height: 1.1em ; margin: 0px ; outline: 0px ; overflow: visible ; position: static ; vertical-align: baseline ; width: auto ; box-sizing: content-box ; font-weight: bold ; min-height: auto&quot;&gt;if&lt;/code&gt;&amp;nbsp;&lt;code class=&quot;java plain&quot; style=&quot;padding: 0px ; font-family: &amp;#34;consolas&amp;#34; , &amp;#34;bitstream vera sans mono&amp;#34; , &amp;#34;courier new&amp;#34; , &amp;#34;courier&amp;#34; , monospace &amp;#34;important&amp;#34; ; font-size: 1em ; color: black ; border-radius: 0px ; background: none ; border: 0px ; float: none ; height: auto ; line-height: 1.1em ; margin: 0px ; outline: 0px ; overflow: visible ; position: static ; vertical-align: baseline ; width: auto ; box-sizing: content-box ; min-height: auto&quot;&gt;(singletonFactory&amp;nbsp;!=&amp;nbsp;&lt;/code&gt;&lt;code class=&quot;java keyword&quot; style=&quot;padding: 0px ; font-family: &amp;#34;consolas&amp;#34; , &amp;#34;bitstream vera sans mono&amp;#34; , &amp;#34;courier new&amp;#34; , &amp;#34;courier&amp;#34; , monospace &amp;#34;important&amp;#34; ; font-size: 1em ; color: rgb(0 , 102 , 153) ; border-radius: 0px ; background: none ; border: 0px ; float: none ; height: auto ; line-height: 1.1em ; margin: 0px ; outline: 0px ; overflow: visible ; position: static ; vertical-align: baseline ; width: auto ; box-sizing: content-box ; font-weight: bold ; min-height: auto&quot;&gt;null&lt;/code&gt;&lt;code class=&quot;java plain&quot; style=&quot;padding: 0px ; font-family: &amp;#34;consolas&amp;#34; , &amp;#34;bitstream vera sans mono&amp;#34; , &amp;#34;courier new&amp;#34; , &amp;#34;courier&amp;#34; , monospace &amp;#34;important&amp;#34; ; font-size: 1em ; color: black ; border-radius: 0px ; background: none ; border: 0px ; float: none ; height: auto ; line-height: 1.1em ; margin: 0px ; outline: 0px ; overflow: visible ; position: static ; vertical-align: baseline ; width: auto ; box-sizing: content-box ; min-height: auto&quot;&gt;)&amp;nbsp;{&lt;/code&gt;&lt;/div&gt;&lt;div class=&quot;line number23 index22 alt2&quot; style=&quot;border-radius: 0px ; background: none white ; border: 0px ; float: none ; height: auto ; line-height: 1.1em ; margin: 0px ; outline: 0px ; overflow: visible ; padding: 0px 1em ; position: static ; vertical-align: baseline ; width: auto ; box-sizing: content-box ; font-size: 1em ; min-height: auto&quot;&gt;&lt;code class=&quot;java spaces&quot; style=&quot;color: rgb(221 , 17 , 68) ; padding: 0px ; font-family: &amp;#34;consolas&amp;#34; , &amp;#34;bitstream vera sans mono&amp;#34; , &amp;#34;courier new&amp;#34; , &amp;#34;courier&amp;#34; , monospace &amp;#34;important&amp;#34; ; font-size: 1em ; border-radius: 0px ; background: none ; border: 0px ; float: none ; height: auto ; line-height: 1.1em ; margin: 0px ; outline: 0px ; overflow: visible ; position: static ; vertical-align: baseline ; width: auto ; box-sizing: content-box ; min-height: auto&quot;&gt;&amp;nbsp;&amp;nbsp;&amp;nbsp;&amp;nbsp;&amp;nbsp;&amp;nbsp;&amp;nbsp;&amp;nbsp;&amp;nbsp;&amp;nbsp;&amp;nbsp;&amp;nbsp;&amp;nbsp;&amp;nbsp;&amp;nbsp;&amp;nbsp;&amp;nbsp;&amp;nbsp;&amp;nbsp;&amp;nbsp;&amp;nbsp;&amp;nbsp;&amp;nbsp;&amp;nbsp;&lt;/code&gt;&lt;code class=&quot;java preprocessor&quot; style=&quot;padding: 0px ; font-family: &amp;#34;consolas&amp;#34; , &amp;#34;bitstream vera sans mono&amp;#34; , &amp;#34;courier new&amp;#34; , &amp;#34;courier&amp;#34; , monospace &amp;#34;important&amp;#34; ; font-size: 1em ; color: gray ; border-radius: 0px ; background: none ; border: 0px ; float: none ; height: auto ; line-height: 1.1em ; margin: 0px ; outline: 0px ; overflow: visible ; position: static ; vertical-align: baseline ; width: auto ; box-sizing: content-box ; min-height: auto&quot;&gt;/**&lt;/code&gt;&lt;/div&gt;&lt;div class=&quot;line number24 index23 alt1&quot; style=&quot;border-radius: 0px ; background: none white ; border: 0px ; float: none ; height: auto ; line-height: 1.1em ; margin: 0px ; outline: 0px ; overflow: visible ; padding: 0px 1em ; position: static ; vertical-align: baseline ; width: auto ; box-sizing: content-box ; font-size: 1em ; min-height: auto&quot;&gt;&lt;code class=&quot;java spaces&quot; style=&quot;color: rgb(221 , 17 , 68) ; padding: 0px ; font-family: &amp;#34;consolas&amp;#34; , &amp;#34;bitstream vera sans mono&amp;#34; , &amp;#34;courier new&amp;#34; , &amp;#34;courier&amp;#34; , monospace &amp;#34;important&amp;#34; ; font-size: 1em ; border-radius: 0px ; background: none ; border: 0px ; float: none ; height: auto ; line-height: 1.1em ; margin: 0px ; outline: 0px ; overflow: visible ; position: static ; vertical-align: baseline ; width: auto ; box-sizing: content-box ; min-height: auto&quot;&gt;&amp;nbsp;&amp;nbsp;&amp;nbsp;&amp;nbsp;&amp;nbsp;&amp;nbsp;&amp;nbsp;&amp;nbsp;&amp;nbsp;&amp;nbsp;&amp;nbsp;&amp;nbsp;&amp;nbsp;&amp;nbsp;&amp;nbsp;&amp;nbsp;&amp;nbsp;&amp;nbsp;&amp;nbsp;&amp;nbsp;&amp;nbsp;&amp;nbsp;&amp;nbsp;&amp;nbsp;&amp;nbsp;&lt;/code&gt;&lt;code class=&quot;java preprocessor&quot; style=&quot;padding: 0px ; font-family: &amp;#34;consolas&amp;#34; , &amp;#34;bitstream vera sans mono&amp;#34; , &amp;#34;courier new&amp;#34; , &amp;#34;courier&amp;#34; , monospace &amp;#34;important&amp;#34; ; font-size: 1em ; color: gray ; border-radius: 0px ; background: none ; border: 0px ; float: none ; height: auto ; line-height: 1.1em ; margin: 0px ; outline: 0px ; overflow: visible ; position: static ; vertical-align: baseline ; width: auto ; box-sizing: content-box ; min-height: auto&quot;&gt;*&amp;nbsp;通过getObject()方法获取bean，通过此方法获取到的实例不单单是提前曝光出来的实例，&lt;/code&gt;&lt;/div&gt;&lt;div class=&quot;line number25 index24 alt2&quot; style=&quot;border-radius: 0px ; background: none white ; border: 0px ; float: none ; height: auto ; line-height: 1.1em ; margin: 0px ; outline: 0px ; overflow: visible ; padding: 0px 1em ; position: static ; vertical-align: baseline ; width: auto ; box-sizing: content-box ; font-size: 1em ; min-height: auto&quot;&gt;&lt;code class=&quot;java spaces&quot; style=&quot;color: rgb(221 , 17 , 68) ; padding: 0px ; font-family: &amp;#34;consolas&amp;#34; , &amp;#34;bitstream vera sans mono&amp;#34; , &amp;#34;courier new&amp;#34; , &amp;#34;courier&amp;#34; , monospace &amp;#34;important&amp;#34; ; font-size: 1em ; border-radius: 0px ; background: none ; border: 0px ; float: none ; height: auto ; line-height: 1.1em ; margin: 0px ; outline: 0px ; overflow: visible ; position: static ; vertical-align: baseline ; width: auto ; box-sizing: content-box ; min-height: auto&quot;&gt;&amp;nbsp;&amp;nbsp;&amp;nbsp;&amp;nbsp;&amp;nbsp;&amp;nbsp;&amp;nbsp;&amp;nbsp;&amp;nbsp;&amp;nbsp;&amp;nbsp;&amp;nbsp;&amp;nbsp;&amp;nbsp;&amp;nbsp;&amp;nbsp;&amp;nbsp;&amp;nbsp;&amp;nbsp;&amp;nbsp;&amp;nbsp;&amp;nbsp;&amp;nbsp;&amp;nbsp;&amp;nbsp;&lt;/code&gt;&lt;code class=&quot;java preprocessor&quot; style=&quot;padding: 0px ; font-family: &amp;#34;consolas&amp;#34; , &amp;#34;bitstream vera sans mono&amp;#34; , &amp;#34;courier new&amp;#34; , &amp;#34;courier&amp;#34; , monospace &amp;#34;important&amp;#34; ; font-size: 1em ; color: gray ; border-radius: 0px ; background: none ; border: 0px ; float: none ; height: auto ; line-height: 1.1em ; margin: 0px ; outline: 0px ; overflow: visible ; position: static ; vertical-align: baseline ; width: auto ; box-sizing: content-box ; min-height: auto&quot;&gt;*&amp;nbsp;它还经过了SmartInstantiationAwareBeanPostProcessor的getEarlyBeanReference方法处理过。&lt;/code&gt;&lt;/div&gt;&lt;div class=&quot;line number26 index25 alt1&quot; style=&quot;border-radius: 0px ; background: none white ; border: 0px ; float: none ; height: auto ; line-height: 1.1em ; margin: 0px ; outline: 0px ; overflow: visible ; padding: 0px 1em ; position: static ; vertical-align: baseline ; width: auto ; box-sizing: content-box ; font-size: 1em ; min-height: auto&quot;&gt;&lt;code class=&quot;java spaces&quot; style=&quot;color: rgb(221 , 17 , 68) ; padding: 0px ; font-family: &amp;#34;consolas&amp;#34; , &amp;#34;bitstream vera sans mono&amp;#34; , &amp;#34;courier new&amp;#34; , &amp;#34;courier&amp;#34; , monospace &amp;#34;important&amp;#34; ; font-size: 1em ; border-radius: 0px ; background: none ; border: 0px ; float: none ; height: auto ; line-height: 1.1em ; margin: 0px ; outline: 0px ; overflow: visible ; position: static ; vertical-align: baseline ; width: auto ; box-sizing: content-box ; min-height: auto&quot;&gt;&amp;nbsp;&amp;nbsp;&amp;nbsp;&amp;nbsp;&amp;nbsp;&amp;nbsp;&amp;nbsp;&amp;nbsp;&amp;nbsp;&amp;nbsp;&amp;nbsp;&amp;nbsp;&amp;nbsp;&amp;nbsp;&amp;nbsp;&amp;nbsp;&amp;nbsp;&amp;nbsp;&amp;nbsp;&amp;nbsp;&amp;nbsp;&amp;nbsp;&amp;nbsp;&amp;nbsp;&amp;nbsp;&lt;/code&gt;&lt;code class=&quot;java preprocessor&quot; style=&quot;padding: 0px ; font-family: &amp;#34;consolas&amp;#34; , &amp;#34;bitstream vera sans mono&amp;#34; , &amp;#34;courier new&amp;#34; , &amp;#34;courier&amp;#34; , monospace &amp;#34;important&amp;#34; ; font-size: 1em ; color: gray ; border-radius: 0px ; background: none ; border: 0px ; float: none ; height: auto ; line-height: 1.1em ; margin: 0px ; outline: 0px ; overflow: visible ; position: static ; vertical-align: baseline ; width: auto ; box-sizing: content-box ; min-height: auto&quot;&gt;*&amp;nbsp;这也正是三级缓存存在的意义，可以通过重写该后置处理器对提前曝光的实例，在被提前引用时进行一些操作&lt;/code&gt;&lt;/div&gt;&lt;div class=&quot;line number27 index26 alt2&quot; style=&quot;border-radius: 0px ; background: none white ; border: 0px ; float: none ; height: auto ; line-height: 1.1em ; margin: 0px ; outline: 0px ; overflow: visible ; padding: 0px 1em ; position: static ; vertical-align: baseline ; width: auto ; box-sizing: content-box ; font-size: 1em ; min-height: auto&quot;&gt;&lt;code class=&quot;java spaces&quot; style=&quot;color: rgb(221 , 17 , 68) ; padding: 0px ; font-family: &amp;#34;consolas&amp;#34; , &amp;#34;bitstream vera sans mono&amp;#34; , &amp;#34;courier new&amp;#34; , &amp;#34;courier&amp;#34; , monospace &amp;#34;important&amp;#34; ; font-size: 1em ; border-radius: 0px ; background: none ; border: 0px ; float: none ; height: auto ; line-height: 1.1em ; margin: 0px ; outline: 0px ; overflow: visible ; position: static ; vertical-align: baseline ; width: auto ; box-sizing: content-box ; min-height: auto&quot;&gt;&amp;nbsp;&amp;nbsp;&amp;nbsp;&amp;nbsp;&amp;nbsp;&amp;nbsp;&amp;nbsp;&amp;nbsp;&amp;nbsp;&amp;nbsp;&amp;nbsp;&amp;nbsp;&amp;nbsp;&amp;nbsp;&amp;nbsp;&amp;nbsp;&amp;nbsp;&amp;nbsp;&amp;nbsp;&amp;nbsp;&amp;nbsp;&amp;nbsp;&amp;nbsp;&amp;nbsp;&lt;/code&gt;&lt;code class=&quot;java preprocessor&quot; style=&quot;padding: 0px ; font-family: &amp;#34;consolas&amp;#34; , &amp;#34;bitstream vera sans mono&amp;#34; , &amp;#34;courier new&amp;#34; , &amp;#34;courier&amp;#34; , monospace &amp;#34;important&amp;#34; ; font-size: 1em ; color: gray ; border-radius: 0px ; background: none ; border: 0px ; float: none ; height: auto ; line-height: 1.1em ; margin: 0px ; outline: 0px ; overflow: visible ; position: static ; vertical-align: baseline ; width: auto ; box-sizing: content-box ; min-height: auto&quot;&gt;*/&lt;/code&gt;&lt;/div&gt;&lt;div class=&quot;line number28 index27 alt1&quot; style=&quot;border-radius: 0px ; background: none white ; border: 0px ; float: none ; height: auto ; line-height: 1.1em ; margin: 0px ; outline: 0px ; overflow: visible ; padding: 0px 1em ; position: static ; vertical-align: baseline ; width: auto ; box-sizing: content-box ; font-size: 1em ; min-height: auto&quot;&gt;&lt;code class=&quot;java spaces&quot; style=&quot;color: rgb(221 , 17 , 68) ; padding: 0px ; font-family: &amp;#34;consolas&amp;#34; , &amp;#34;bitstream vera sans mono&amp;#34; , &amp;#34;courier new&amp;#34; , &amp;#34;courier&amp;#34; , monospace &amp;#34;important&amp;#34; ; font-size: 1em ; border-radius: 0px ; background: none ; border: 0px ; float: none ; height: auto ; line-height: 1.1em ; margin: 0px ; outline: 0px ; overflow: visible ; position: static ; vertical-align: baseline ; width: auto ; box-sizing: content-box ; min-height: auto&quot;&gt;&amp;nbsp;&amp;nbsp;&amp;nbsp;&amp;nbsp;&amp;nbsp;&amp;nbsp;&amp;nbsp;&amp;nbsp;&amp;nbsp;&amp;nbsp;&amp;nbsp;&amp;nbsp;&amp;nbsp;&amp;nbsp;&amp;nbsp;&amp;nbsp;&amp;nbsp;&amp;nbsp;&amp;nbsp;&amp;nbsp;&amp;nbsp;&amp;nbsp;&amp;nbsp;&amp;nbsp;&lt;/code&gt;&lt;code class=&quot;java plain&quot; style=&quot;padding: 0px ; font-family: &amp;#34;consolas&amp;#34; , &amp;#34;bitstream vera sans mono&amp;#34; , &amp;#34;courier new&amp;#34; , &amp;#34;courier&amp;#34; , monospace &amp;#34;important&amp;#34; ; font-size: 1em ; color: black ; border-radius: 0px ; background: none ; border: 0px ; float: none ; height: auto ; line-height: 1.1em ; margin: 0px ; outline: 0px ; overflow: visible ; position: static ; vertical-align: baseline ; width: auto ; box-sizing: content-box ; min-height: auto&quot;&gt;singletonObject&amp;nbsp;=&amp;nbsp;singletonFactory.getObject();&lt;/code&gt;&lt;/div&gt;&lt;div class=&quot;line number29 index28 alt2&quot; style=&quot;border-radius: 0px ; background: none white ; border: 0px ; float: none ; height: auto ; line-height: 1.1em ; margin: 0px ; outline: 0px ; overflow: visible ; padding: 0px 1em ; position: static ; vertical-align: baseline ; width: auto ; box-sizing: content-box ; font-size: 1em ; min-height: auto&quot;&gt;&lt;code class=&quot;java spaces&quot; style=&quot;color: rgb(221 , 17 , 68) ; padding: 0px ; font-family: &amp;#34;consolas&amp;#34; , &amp;#34;bitstream vera sans mono&amp;#34; , &amp;#34;courier new&amp;#34; , &amp;#34;courier&amp;#34; , monospace &amp;#34;important&amp;#34; ; font-size: 1em ; border-radius: 0px ; background: none ; border: 0px ; float: none ; height: auto ; line-height: 1.1em ; margin: 0px ; outline: 0px ; overflow: visible ; position: static ; vertical-align: baseline ; width: auto ; box-sizing: content-box ; min-height: auto&quot;&gt;&amp;nbsp;&amp;nbsp;&amp;nbsp;&amp;nbsp;&amp;nbsp;&amp;nbsp;&amp;nbsp;&amp;nbsp;&amp;nbsp;&amp;nbsp;&amp;nbsp;&amp;nbsp;&amp;nbsp;&amp;nbsp;&amp;nbsp;&amp;nbsp;&amp;nbsp;&amp;nbsp;&amp;nbsp;&amp;nbsp;&amp;nbsp;&amp;nbsp;&amp;nbsp;&amp;nbsp;&lt;/code&gt;&lt;code class=&quot;java comments&quot; style=&quot;padding: 0px ; font-family: &amp;#34;consolas&amp;#34; , &amp;#34;bitstream vera sans mono&amp;#34; , &amp;#34;courier new&amp;#34; , &amp;#34;courier&amp;#34; , monospace &amp;#34;important&amp;#34; ; font-size: 1em ; color: rgb(0 , 130 , 0) ; border-radius: 0px ; background: none ; border: 0px ; float: none ; height: auto ; line-height: 1.1em ; margin: 0px ; outline: 0px ; overflow: visible ; position: static ; vertical-align: baseline ; width: auto ; box-sizing: content-box ; min-height: auto&quot;&gt;//&amp;nbsp;将三级缓存生产的bean放入二级缓存中&lt;/code&gt;&lt;/div&gt;&lt;div class=&quot;line number30 index29 alt1&quot; style=&quot;border-radius: 0px ; background: none white ; border: 0px ; float: none ; height: auto ; line-height: 1.1em ; margin: 0px ; outline: 0px ; overflow: visible ; padding: 0px 1em ; position: static ; vertical-align: baseline ; width: auto ; box-sizing: content-box ; font-size: 1em ; min-height: auto&quot;&gt;&lt;code class=&quot;java spaces&quot; style=&quot;color: rgb(221 , 17 , 68) ; padding: 0px ; font-family: &amp;#34;consolas&amp;#34; , &amp;#34;bitstream vera sans mono&amp;#34; , &amp;#34;courier new&amp;#34; , &amp;#34;courier&amp;#34; , monospace &amp;#34;important&amp;#34; ; font-size: 1em ; border-radius: 0px ; background: none ; border: 0px ; float: none ; height: auto ; line-height: 1.1em ; margin: 0px ; outline: 0px ; overflow: visible ; position: static ; vertical-align: baseline ; width: auto ; box-sizing: content-box ; min-height: auto&quot;&gt;&amp;nbsp;&amp;nbsp;&amp;nbsp;&amp;nbsp;&amp;nbsp;&amp;nbsp;&amp;nbsp;&amp;nbsp;&amp;nbsp;&amp;nbsp;&amp;nbsp;&amp;nbsp;&amp;nbsp;&amp;nbsp;&amp;nbsp;&amp;nbsp;&amp;nbsp;&amp;nbsp;&amp;nbsp;&amp;nbsp;&amp;nbsp;&amp;nbsp;&amp;nbsp;&amp;nbsp;&lt;/code&gt;&lt;code class=&quot;java keyword&quot; style=&quot;padding: 0px ; font-family: &amp;#34;consolas&amp;#34; , &amp;#34;bitstream vera sans mono&amp;#34; , &amp;#34;courier new&amp;#34; , &amp;#34;courier&amp;#34; , monospace &amp;#34;important&amp;#34; ; font-size: 1em ; color: rgb(0 , 102 , 153) ; border-radius: 0px ; background: none ; border: 0px ; float: none ; height: auto ; line-height: 1.1em ; margin: 0px ; outline: 0px ; overflow: visible ; position: static ; vertical-align: baseline ; width: auto ; box-sizing: content-box ; font-weight: bold ; min-height: auto&quot;&gt;this&lt;/code&gt;&lt;code class=&quot;java plain&quot; style=&quot;padding: 0px ; font-family: &amp;#34;consolas&amp;#34; , &amp;#34;bitstream vera sans mono&amp;#34; , &amp;#34;courier new&amp;#34; , &amp;#34;courier&amp;#34; , monospace &amp;#34;important&amp;#34; ; font-size: 1em ; color: black ; border-radius: 0px ; background: none ; border: 0px ; float: none ; height: auto ; line-height: 1.1em ; margin: 0px ; outline: 0px ; overflow: visible ; position: static ; vertical-align: baseline ; width: auto ; box-sizing: content-box ; min-height: auto&quot;&gt;.earlySingletonObjects.put(beanName,&amp;nbsp;singletonObject);&lt;/code&gt;&lt;/div&gt;&lt;div class=&quot;line number31 index30 alt2&quot; style=&quot;border-radius: 0px ; background: none white ; border: 0px ; float: none ; height: auto ; line-height: 1.1em ; margin: 0px ; outline: 0px ; overflow: visible ; padding: 0px 1em ; position: static ; vertical-align: baseline ; width: auto ; box-sizing: content-box ; font-size: 1em ; min-height: auto&quot;&gt;&lt;code class=&quot;java spaces&quot; style=&quot;color: rgb(221 , 17 , 68) ; padding: 0px ; font-family: &amp;#34;consolas&amp;#34; , &amp;#34;bitstream vera sans mono&amp;#34; , &amp;#34;courier new&amp;#34; , &amp;#34;courier&amp;#34; , monospace &amp;#34;important&amp;#34; ; font-size: 1em ; border-radius: 0px ; background: none ; border: 0px ; float: none ; height: auto ; line-height: 1.1em ; margin: 0px ; outline: 0px ; overflow: visible ; position: static ; vertical-align: baseline ; width: auto ; box-sizing: content-box ; min-height: auto&quot;&gt;&amp;nbsp;&amp;nbsp;&amp;nbsp;&amp;nbsp;&amp;nbsp;&amp;nbsp;&amp;nbsp;&amp;nbsp;&amp;nbsp;&amp;nbsp;&amp;nbsp;&amp;nbsp;&amp;nbsp;&amp;nbsp;&amp;nbsp;&amp;nbsp;&amp;nbsp;&amp;nbsp;&amp;nbsp;&amp;nbsp;&amp;nbsp;&amp;nbsp;&amp;nbsp;&amp;nbsp;&lt;/code&gt;&lt;code class=&quot;java comments&quot; style=&quot;padding: 0px ; font-family: &amp;#34;consolas&amp;#34; , &amp;#34;bitstream vera sans mono&amp;#34; , &amp;#34;courier new&amp;#34; , &amp;#34;courier&amp;#34; , monospace &amp;#34;important&amp;#34; ; font-size: 1em ; color: rgb(0 , 130 , 0) ; border-radius: 0px ; background: none ; border: 0px ; float: none ; height: auto ; line-height: 1.1em ; margin: 0px ; outline: 0px ; overflow: visible ; position: static ; vertical-align: baseline ; width: auto ; box-sizing: content-box ; min-height: auto&quot;&gt;//&amp;nbsp;删除三级缓存&lt;/code&gt;&lt;/div&gt;&lt;div class=&quot;line number32 index31 alt1&quot; style=&quot;border-radius: 0px ; background: none white ; border: 0px ; float: none ; height: auto ; line-height: 1.1em ; margin: 0px ; outline: 0px ; overflow: visible ; padding: 0px 1em ; position: static ; vertical-align: baseline ; width: auto ; box-sizing: content-box ; font-size: 1em ; min-height: auto&quot;&gt;&lt;code class=&quot;java spaces&quot; style=&quot;color: rgb(221 , 17 , 68) ; padding: 0px ; font-family: &amp;#34;consolas&amp;#34; , &amp;#34;bitstream vera sans mono&amp;#34; , &amp;#34;courier new&amp;#34; , &amp;#34;courier&amp;#34; , monospace &amp;#34;important&amp;#34; ; font-size: 1em ; border-radius: 0px ; background: none ; border: 0px ; float: none ; height: auto ; line-height: 1.1em ; margin: 0px ; outline: 0px ; overflow: visible ; position: static ; vertical-align: baseline ; width: auto ; box-sizing: content-box ; min-height: auto&quot;&gt;&amp;nbsp;&amp;nbsp;&amp;nbsp;&amp;nbsp;&amp;nbsp;&amp;nbsp;&amp;nbsp;&amp;nbsp;&amp;nbsp;&amp;nbsp;&amp;nbsp;&amp;nbsp;&amp;nbsp;&amp;nbsp;&amp;nbsp;&amp;nbsp;&amp;nbsp;&amp;nbsp;&amp;nbsp;&amp;nbsp;&amp;nbsp;&amp;nbsp;&amp;nbsp;&amp;nbsp;&lt;/code&gt;&lt;code class=&quot;java keyword&quot; style=&quot;padding: 0px ; font-family: &amp;#34;consolas&amp;#34; , &amp;#34;bitstream vera sans mono&amp;#34; , &amp;#34;courier new&amp;#34; , &amp;#34;courier&amp;#34; , monospace &amp;#34;important&amp;#34; ; font-size: 1em ; color: rgb(0 , 102 , 153) ; border-radius: 0px ; background: none ; border: 0px ; float: none ; height: auto ; line-height: 1.1em ; margin: 0px ; outline: 0px ; overflow: visible ; position: static ; vertical-align: baseline ; width: auto ; box-sizing: content-box ; font-weight: bold ; min-height: auto&quot;&gt;this&lt;/code&gt;&lt;code class=&quot;java plain&quot; style=&quot;padding: 0px ; font-family: &amp;#34;consolas&amp;#34; , &amp;#34;bitstream vera sans mono&amp;#34; , &amp;#34;courier new&amp;#34; , &amp;#34;courier&amp;#34; , monospace &amp;#34;important&amp;#34; ; font-size: 1em ; color: black ; border-radius: 0px ; background: none ; border: 0px ; float: none ; height: auto ; line-height: 1.1em ; margin: 0px ; outline: 0px ; overflow: visible ; position: static ; vertical-align: baseline ; width: auto ; box-sizing: content-box ; min-height: auto&quot;&gt;.singletonFactories.remove(beanName);&lt;/code&gt;&lt;/div&gt;&lt;div class=&quot;line number33 index32 alt2&quot; style=&quot;border-radius: 0px ; background: none white ; border: 0px ; float: none ; height: auto ; line-height: 1.1em ; margin: 0px ; outline: 0px ; overflow: visible ; padding: 0px 1em ; position: static ; vertical-align: baseline ; width: auto ; box-sizing: content-box ; font-size: 1em ; min-height: auto&quot;&gt;&lt;code class=&quot;java spaces&quot; style=&quot;color: rgb(221 , 17 , 68) ; padding: 0px ; font-family: &amp;#34;consolas&amp;#34; , &amp;#34;bitstream vera sans mono&amp;#34; , &amp;#34;courier new&amp;#34; , &amp;#34;courier&amp;#34; , monospace &amp;#34;important&amp;#34; ; font-size: 1em ; border-radius: 0px ; background: none ; border: 0px ; float: none ; height: auto ; line-height: 1.1em ; margin: 0px ; outline: 0px ; overflow: visible ; position: static ; vertical-align: baseline ; width: auto ; box-sizing: content-box ; min-height: auto&quot;&gt;&amp;nbsp;&amp;nbsp;&amp;nbsp;&amp;nbsp;&amp;nbsp;&amp;nbsp;&amp;nbsp;&amp;nbsp;&amp;nbsp;&amp;nbsp;&amp;nbsp;&amp;nbsp;&amp;nbsp;&amp;nbsp;&amp;nbsp;&amp;nbsp;&amp;nbsp;&amp;nbsp;&amp;nbsp;&amp;nbsp;&lt;/code&gt;&lt;code class=&quot;java plain&quot; style=&quot;padding: 0px ; font-family: &amp;#34;consolas&amp;#34; , &amp;#34;bitstream vera sans mono&amp;#34; , &amp;#34;courier new&amp;#34; , &amp;#34;courier&amp;#34; , monospace &amp;#34;important&amp;#34; ; font-size: 1em ; color: black ; border-radius: 0px ; background: none ; border: 0px ; float: none ; height: auto ; line-height: 1.1em ; margin: 0px ; outline: 0px ; overflow: visible ; position: static ; vertical-align: baseline ; width: auto ; box-sizing: content-box ; min-height: auto&quot;&gt;}&lt;/code&gt;&lt;/div&gt;&lt;div class=&quot;line number34 index33 alt1&quot; style=&quot;border-radius: 0px ; background: none white ; border: 0px ; float: none ; height: auto ; line-height: 1.1em ; margin: 0px ; outline: 0px ; overflow: visible ; padding: 0px 1em ; position: static ; vertical-align: baseline ; width: auto ; box-sizing: content-box ; font-size: 1em ; min-height: auto&quot;&gt;&lt;code class=&quot;java spaces&quot; style=&quot;color: rgb(221 , 17 , 68) ; padding: 0px ; font-family: &amp;#34;consolas&amp;#34; , &amp;#34;bitstream vera sans mono&amp;#34; , &amp;#34;courier new&amp;#34; , &amp;#34;courier&amp;#34; , monospace &amp;#34;important&amp;#34; ; font-size: 1em ; border-radius: 0px ; background: none ; border: 0px ; float: none ; height: auto ; line-height: 1.1em ; margin: 0px ; outline: 0px ; overflow: visible ; position: static ; vertical-align: baseline ; width: auto ; box-sizing: content-box ; min-height: auto&quot;&gt;&amp;nbsp;&amp;nbsp;&amp;nbsp;&amp;nbsp;&amp;nbsp;&amp;nbsp;&amp;nbsp;&amp;nbsp;&amp;nbsp;&amp;nbsp;&amp;nbsp;&amp;nbsp;&amp;nbsp;&amp;nbsp;&amp;nbsp;&amp;nbsp;&lt;/code&gt;&lt;code class=&quot;java plain&quot; style=&quot;padding: 0px ; font-family: &amp;#34;consolas&amp;#34; , &amp;#34;bitstream vera sans mono&amp;#34; , &amp;#34;courier new&amp;#34; , &amp;#34;courier&amp;#34; , monospace &amp;#34;important&amp;#34; ; font-size: 1em ; color: black ; border-radius: 0px ; background: none ; border: 0px ; float: none ; height: auto ; line-height: 1.1em ; margin: 0px ; outline: 0px ; overflow: visible ; position: static ; vertical-align: baseline ; width: auto ; box-sizing: content-box ; min-height: auto&quot;&gt;}&lt;/code&gt;&lt;/div&gt;&lt;div class=&quot;line number35 index34 alt2&quot; style=&quot;border-radius: 0px ; background: none white ; border: 0px ; float: none ; height: auto ; line-height: 1.1em ; margin: 0px ; outline: 0px ; overflow: visible ; padding: 0px 1em ; position: static ; vertical-align: baseline ; width: auto ; box-sizing: content-box ; font-size: 1em ; min-height: auto&quot;&gt;&lt;code class=&quot;java spaces&quot; style=&quot;color: rgb(221 , 17 , 68) ; padding: 0px ; font-family: &amp;#34;consolas&amp;#34; , &amp;#34;bitstream vera sans mono&amp;#34; , &amp;#34;courier new&amp;#34; , &amp;#34;courier&amp;#34; , monospace &amp;#34;important&amp;#34; ; font-size: 1em ; border-radius: 0px ; background: none ; border: 0px ; float: none ; height: auto ; line-height: 1.1em ; margin: 0px ; outline: 0px ; overflow: visible ; position: static ; vertical-align: baseline ; width: auto ; box-sizing: content-box ; min-height: auto&quot;&gt;&amp;nbsp;&amp;nbsp;&amp;nbsp;&amp;nbsp;&amp;nbsp;&amp;nbsp;&amp;nbsp;&amp;nbsp;&amp;nbsp;&amp;nbsp;&amp;nbsp;&amp;nbsp;&lt;/code&gt;&lt;code class=&quot;java plain&quot; style=&quot;padding: 0px ; font-family: &amp;#34;consolas&amp;#34; , &amp;#34;bitstream vera sans mono&amp;#34; , &amp;#34;courier new&amp;#34; , &amp;#34;courier&amp;#34; , monospace &amp;#34;important&amp;#34; ; font-size: 1em ; color: black ; border-radius: 0px ; background: none ; border: 0px ; float: none ; height: auto ; line-height: 1.1em ; margin: 0px ; outline: 0px ; overflow: visible ; position: static ; vertical-align: baseline ; width: auto ; box-sizing: content-box ; min-height: auto&quot;&gt;}&lt;/code&gt;&lt;/div&gt;&lt;div class=&quot;line number36 index35 alt1&quot; style=&quot;border-radius: 0px ; background: none white ; border: 0px ; float: none ; height: auto ; line-height: 1.1em ; margin: 0px ; outline: 0px ; overflow: visible ; padding: 0px 1em ; position: static ; vertical-align: baseline ; width: auto ; box-sizing: content-box ; font-size: 1em ; min-height: auto&quot;&gt;&lt;code class=&quot;java spaces&quot; style=&quot;color: rgb(221 , 17 , 68) ; padding: 0px ; font-family: &amp;#34;consolas&amp;#34; , &amp;#34;bitstream vera sans mono&amp;#34; , &amp;#34;courier new&amp;#34; , &amp;#34;courier&amp;#34; , monospace &amp;#34;important&amp;#34; ; font-size: 1em ; border-radius: 0px ; background: none ; border: 0px ; float: none ; height: auto ; line-height: 1.1em ; margin: 0px ; outline: 0px ; overflow: visible ; position: static ; vertical-align: baseline ; width: auto ; box-sizing: content-box ; min-height: auto&quot;&gt;&amp;nbsp;&amp;nbsp;&amp;nbsp;&amp;nbsp;&amp;nbsp;&amp;nbsp;&amp;nbsp;&amp;nbsp;&lt;/code&gt;&lt;code class=&quot;java plain&quot; style=&quot;padding: 0px ; font-family: &amp;#34;consolas&amp;#34; , &amp;#34;bitstream vera sans mono&amp;#34; , &amp;#34;courier new&amp;#34; , &amp;#34;courier&amp;#34; , monospace &amp;#34;important&amp;#34; ; font-size: 1em ; color: black ; border-radius: 0px ; background: none ; border: 0px ; float: none ; height: auto ; line-height: 1.1em ; margin: 0px ; outline: 0px ; overflow: visible ; position: static ; vertical-align: baseline ; width: auto ; box-sizing: content-box ; min-height: auto&quot;&gt;}&lt;/code&gt;&lt;/div&gt;&lt;div class=&quot;line number37 index36 alt2&quot; style=&quot;border-radius: 0px ; background: none white ; border: 0px ; float: none ; height: auto ; line-height: 1.1em ; margin: 0px ; outline: 0px ; overflow: visible ; padding: 0px 1em ; position: static ; vertical-align: baseline ; width: auto ; box-sizing: content-box ; font-size: 1em ; min-height: auto&quot;&gt;&lt;code class=&quot;java spaces&quot; style=&quot;color: rgb(221 , 17 , 68) ; padding: 0px ; font-family: &amp;#34;consolas&amp;#34; , &amp;#34;bitstream vera sans mono&amp;#34; , &amp;#34;courier new&amp;#34; , &amp;#34;courier&amp;#34; , monospace &amp;#34;important&amp;#34; ; font-size: 1em ; border-radius: 0px ; background: none ; border: 0px ; float: none ; height: auto ; line-height: 1.1em ; margin: 0px ; outline: 0px ; overflow: visible ; position: static ; vertical-align: baseline ; width: auto ; box-sizing: content-box ; min-height: auto&quot;&gt;&amp;nbsp;&amp;nbsp;&amp;nbsp;&amp;nbsp;&amp;nbsp;&amp;nbsp;&amp;nbsp;&amp;nbsp;&lt;/code&gt;&lt;code class=&quot;java keyword&quot; style=&quot;padding: 0px ; font-family: &amp;#34;consolas&amp;#34; , &amp;#34;bitstream vera sans mono&amp;#34; , &amp;#34;courier new&amp;#34; , &amp;#34;courier&amp;#34; , monospace &amp;#34;important&amp;#34; ; font-size: 1em ; color: rgb(0 , 102 , 153) ; border-radius: 0px ; background: none ; border: 0px ; float: none ; height: auto ; line-height: 1.1em ; margin: 0px ; outline: 0px ; overflow: visible ; position: static ; vertical-align: baseline ; width: auto ; box-sizing: content-box ; font-weight: bold ; min-height: auto&quot;&gt;return&lt;/code&gt;&amp;nbsp;&lt;code class=&quot;java plain&quot; style=&quot;padding: 0px ; font-family: &amp;#34;consolas&amp;#34; , &amp;#34;bitstream vera sans mono&amp;#34; , &amp;#34;courier new&amp;#34; , &amp;#34;courier&amp;#34; , monospace &amp;#34;important&amp;#34; ; font-size: 1em ; color: black ; border-radius: 0px ; background: none ; border: 0px ; float: none ; height: auto ; line-height: 1.1em ; margin: 0px ; outline: 0px ; overflow: visible ; position: static ; vertical-align: baseline ; width: auto ; box-sizing: content-box ; min-height: auto&quot;&gt;singletonObject;&lt;/code&gt;&lt;/div&gt;&lt;div class=&quot;line number38 index37 alt1&quot; style=&quot;border-radius: 0px ; background: none white ; border: 0px ; float: none ; height: auto ; line-height: 1.1em ; margin: 0px ; outline: 0px ; overflow: visible ; padding: 0px 1em ; position: static ; vertical-align: baseline ; width: auto ; box-sizing: content-box ; font-size: 1em ; min-height: auto&quot;&gt;&lt;code class=&quot;java spaces&quot; style=&quot;color: rgb(221 , 17 , 68) ; padding: 0px ; font-family: &amp;#34;consolas&amp;#34; , &amp;#34;bitstream vera sans mono&amp;#34; , &amp;#34;courier new&amp;#34; , &amp;#34;courier&amp;#34; , monospace &amp;#34;important&amp;#34; ; font-size: 1em ; border-radius: 0px ; background: none ; border: 0px ; float: none ; height: auto ; line-height: 1.1em ; margin: 0px ; outline: 0px ; overflow: visible ; position: static ; vertical-align: baseline ; width: auto ; box-sizing: content-box ; min-height: auto&quot;&gt;&amp;nbsp;&amp;nbsp;&amp;nbsp;&amp;nbsp;&lt;/code&gt;&lt;code class=&quot;java plain&quot; style=&quot;padding: 0px ; font-family: &amp;#34;consolas&amp;#34; , &amp;#34;bitstream vera sans mono&amp;#34; , &amp;#34;courier new&amp;#34; , &amp;#34;courier&amp;#34; , monospace &amp;#34;important&amp;#34; ; font-size: 1em ; color: black ; border-radius: 0px ; background: none ; border: 0px ; float: none ; height: auto ; line-height: 1.1em ; margin: 0px ; outline: 0px ; overflow: visible ; position: static ; vertical-align: baseline ; width: auto ; box-sizing: content-box ; min-height: auto&quot;&gt;}&lt;/code&gt;&lt;/div&gt;&lt;/div&gt;&lt;/td&gt;&lt;/tr&gt;&lt;/tbody&gt;&lt;/table&gt;&lt;/pre&gt;" style="text;html=1;strokeColor=none;fillColor=none;align=center;verticalAlign=middle;whiteSpace=wrap;rounded=0;" vertex="1" parent="1">
          <mxGeometry x="231" y="-530" width="1010" height="530" as="geometry" />
        </mxCell>
      </root>
    </mxGraphModel>
  </diagram>
</mxfile>
